<svg width="40" height="40" viewBox="0 0 40 40" fill="none" xmlns="http://www.w3.org/2000/svg">
<path d="M14.3121 14.5367H0.22463C0.096271 14.5367 0 14.4404 0 14.3121V0.22463C0 0.096271 0.096271 0 0.22463 0H14.3121C14.4404 0 14.5367 0.096271 14.5367 0.22463V14.3121C14.5367 14.4404 14.4404 14.5367 14.3121 14.5367Z" fill="#324A5E"/>
<path d="M12.2583 2.27838H2.27837V12.2583H12.2583V2.27838Z" fill="white"/>
<path d="M10.3811 4.15564H4.15567V10.3811H10.3811V4.15564Z" fill="#324A5E"/>
<path d="M14.3121 39.9839H0.224676C0.0963168 39.9839 4.57764e-05 39.8877 4.57764e-05 39.7593V25.6718C4.57764e-05 25.5435 0.0963168 25.4472 0.224676 25.4472H14.3121C14.4405 25.4472 14.5367 25.5435 14.5367 25.6718V39.7593C14.5367 39.8877 14.4405 39.9839 14.3121 39.9839Z" fill="#324A5E"/>
<path d="M12.2583 27.7256H2.27837V37.7056H12.2583V27.7256Z" fill="white"/>
<path d="M10.3811 29.6029H4.15565V35.8283H10.3811V29.6029Z" fill="#324A5E"/>
<path d="M39.7593 14.5367H25.6719C25.5435 14.5367 25.4473 14.4404 25.4473 14.3121V0.22463C25.4473 0.096271 25.5435 0 25.6719 0H39.7593C39.8877 0 39.984 0.096271 39.984 0.22463V14.3121C39.984 14.4404 39.8877 14.5367 39.7593 14.5367Z" fill="#324A5E"/>
<path d="M37.7056 2.27838H27.7256V12.2583H37.7056V2.27838Z" fill="white"/>
<path d="M35.8283 4.15564H29.6029V10.3811H35.8283V4.15564Z" fill="#324A5E"/>
<path d="M39.7593 39.9839H25.6718C25.5435 39.9839 25.4472 39.8877 25.4472 39.7593V25.6718C25.4472 25.5435 25.5435 25.4472 25.6718 25.4472H39.7593C39.8876 25.4472 39.9839 25.5435 39.9839 25.6718V39.7593C39.9839 39.8877 39.8876 39.9839 39.7593 39.9839Z" fill="#324A5E"/>
<path d="M37.7056 27.7256H27.7256V37.7056H37.7056V27.7256Z" fill="white"/>
<path d="M35.8283 29.6029H29.6029V35.8283H35.8283V29.6029Z" fill="#324A5E"/>
<path d="M18.8368 0H17.0237V3.86683H18.8368V0Z" fill="#324A5E"/>
<path d="M21.757 8.43966V7.44488H20.3771V6.80308H21.5965V4.42843H22.8961V1.94147H21.0831V2.93625H19.7834V5.51949H18.5801V6.53032H17.2804V10.3971H19.0775V8.02249H19.9439V9.94788H21.7249V12.3065H23.5379V8.43966H21.757Z" fill="#324A5E"/>
<path d="M2.42279 16.6066H0.0802307V20.9547H2.42279V16.6066Z" fill="#324A5E"/>
<path d="M12.9322 21.3237H7.91016V23.3614H12.9322V21.3237Z" fill="#324A5E"/>
<path d="M13.6703 17.136H10.4292V18.1629H5.64781V20.1845H10.6859V19.1737H12.2904V20.9547H15.5475V18.933H13.6703V17.136Z" fill="#324A5E"/>
<path d="M31.1914 19.5588H28.6723V17.7618H25.4312V18.9331H23.3775V20.5857H21.067V22.6074H24.3081V20.9547H26.6346V19.7995H27.9342V21.5965H30.8063V22.9924H34.0474V20.9547H31.1914V19.5588Z" fill="#324A5E"/>
<path d="M36.1332 18.2431H32.8921V20.2808H36.1332V18.2431Z" fill="#324A5E"/>
<path d="M39.8877 16.8953H36.6466V18.933H39.8877V16.8953Z" fill="#324A5E"/>
<path d="M19.992 18.548H16.7509V20.5857H19.992V18.548Z" fill="#324A5E"/>
<path d="M5.84038 21.3558H2.5993V23.3935H5.84038V21.3558Z" fill="#324A5E"/>
<path d="M23.2652 36.1011H21.4521V40H23.2652V36.1011Z" fill="#324A5E"/>
<path d="M21.7088 33.4377H23.0085V29.5387H21.1954V31.9134H20.329V29.988H18.5319V28.0947H18.5961V26.073H15.7883V28.0947H16.7189V31.4962H18.5159V32.5071H19.8958V33.1489H18.6763V37.0317H20.4894V34.4325H21.7088V33.4377Z" fill="#324A5E"/>
</svg>
