<svg xmlns="http://www.w3.org/2000/svg" width="14" height="19.2" viewBox="0 0 14 19.2">
  <path id="iconfinder_136_111076" d="M91.5,44.347a6.8,6.8,0,0,0,6.8,6.8h.4a6.886,6.886,0,0,0,6.4-9.2,6.794,6.794,0,0,0-5.6,2.94v-3.04a5,5,0,0,0,4-4.9V32.739a.8.8,0,0,0-1.372-.552l-1.52,1.5-1.508-1.5a.811.811,0,0,0-1.152,0l-1.532,1.528-1.544-1.528a.8.8,0,0,0-1.372.552v4.208a5,5,0,0,0,4,4.9v3.04a6.794,6.794,0,0,0-5.6-2.94A6.808,6.808,0,0,0,91.5,44.347Z" transform="translate(-91.505 -31.947)" fill="#8fd96e" fill-rule="evenodd"/>
</svg>
