<svg width="414" height="570" viewBox="0 0 414 570" fill="none" xmlns="http://www.w3.org/2000/svg">
<mask id="mask0" mask-type="alpha" maskUnits="userSpaceOnUse" x="0" y="0" width="414" height="570">
<rect width="414" height="570" fill="#C4C4C4"/>
</mask>
<g mask="url(#mask0)">
<path d="M0 0H414V480C414 480 388.5 550 292 550C195.5 550 169.97 514.744 89.5 510C25 506.198 0 470 0 470V0Z" fill="#FA2E64"/>
<path d="M-1.6543 444.432C9.28157 457.88 36.7476 485.094 59.1248 486.368C121.728 489.93 155.856 500.215 186.368 517.877C244.266 540.793 371.936 572.944 414.474 485.612" stroke="white"/>
<path d="M172.017 174.88L167.841 186H165.729L161.537 174.88H163.489L166.785 184.128L170.097 174.88H172.017ZM181.782 181.376C181.782 181.707 181.761 182.005 181.718 182.272H174.982C175.036 182.976 175.297 183.541 175.766 183.968C176.236 184.395 176.812 184.608 177.494 184.608C178.476 184.608 179.169 184.197 179.574 183.376H181.542C181.276 184.187 180.79 184.853 180.086 185.376C179.393 185.888 178.529 186.144 177.494 186.144C176.652 186.144 175.894 185.957 175.222 185.584C174.561 185.2 174.038 184.667 173.654 183.984C173.281 183.291 173.094 182.491 173.094 181.584C173.094 180.677 173.276 179.883 173.638 179.2C174.012 178.507 174.529 177.973 175.19 177.6C175.862 177.227 176.63 177.04 177.494 177.04C178.326 177.04 179.068 177.221 179.718 177.584C180.369 177.947 180.876 178.459 181.238 179.12C181.601 179.771 181.782 180.523 181.782 181.376ZM179.878 180.8C179.868 180.128 179.628 179.589 179.158 179.184C178.689 178.779 178.108 178.576 177.414 178.576C176.785 178.576 176.246 178.779 175.798 179.184C175.35 179.579 175.084 180.117 174.998 180.8H179.878ZM187.289 177.04C187.972 177.04 188.575 177.179 189.097 177.456C189.631 177.723 190.047 178.059 190.345 178.464V177.184H192.185V186.144C192.185 186.955 192.015 187.675 191.673 188.304C191.332 188.944 190.836 189.445 190.185 189.808C189.545 190.171 188.777 190.352 187.881 190.352C186.687 190.352 185.695 190.069 184.905 189.504C184.116 188.949 183.668 188.192 183.561 187.232H185.369C185.508 187.691 185.801 188.059 186.249 188.336C186.708 188.624 187.252 188.768 187.881 188.768C188.617 188.768 189.209 188.544 189.657 188.096C190.116 187.648 190.345 186.997 190.345 186.144V184.672C190.036 185.088 189.615 185.44 189.081 185.728C188.559 186.005 187.961 186.144 187.289 186.144C186.521 186.144 185.817 185.952 185.177 185.568C184.548 185.173 184.047 184.629 183.673 183.936C183.311 183.232 183.129 182.437 183.129 181.552C183.129 180.667 183.311 179.883 183.673 179.2C184.047 178.517 184.548 177.989 185.177 177.616C185.817 177.232 186.521 177.04 187.289 177.04ZM190.345 181.584C190.345 180.976 190.217 180.448 189.961 180C189.716 179.552 189.391 179.211 188.985 178.976C188.58 178.741 188.143 178.624 187.673 178.624C187.204 178.624 186.767 178.741 186.361 178.976C185.956 179.2 185.625 179.536 185.369 179.984C185.124 180.421 185.001 180.944 185.001 181.552C185.001 182.16 185.124 182.693 185.369 183.152C185.625 183.611 185.956 183.963 186.361 184.208C186.777 184.443 187.215 184.56 187.673 184.56C188.143 184.56 188.58 184.443 188.985 184.208C189.391 183.973 189.716 183.632 189.961 183.184C190.217 182.725 190.345 182.192 190.345 181.584ZM202.821 181.376C202.821 181.707 202.8 182.005 202.757 182.272H196.021C196.075 182.976 196.336 183.541 196.805 183.968C197.275 184.395 197.851 184.608 198.533 184.608C199.515 184.608 200.208 184.197 200.613 183.376H202.581C202.315 184.187 201.829 184.853 201.125 185.376C200.432 185.888 199.568 186.144 198.533 186.144C197.691 186.144 196.933 185.957 196.261 185.584C195.6 185.2 195.077 184.667 194.693 183.984C194.32 183.291 194.133 182.491 194.133 181.584C194.133 180.677 194.315 179.883 194.677 179.2C195.051 178.507 195.568 177.973 196.229 177.6C196.901 177.227 197.669 177.04 198.533 177.04C199.365 177.04 200.107 177.221 200.757 177.584C201.408 177.947 201.915 178.459 202.277 179.12C202.64 179.771 202.821 180.523 202.821 181.376ZM200.917 180.8C200.907 180.128 200.667 179.589 200.197 179.184C199.728 178.779 199.147 178.576 198.453 178.576C197.824 178.576 197.285 178.779 196.837 179.184C196.389 179.579 196.123 180.117 196.037 180.8H200.917ZM206.904 178.672V183.552C206.904 183.883 206.979 184.123 207.128 184.272C207.288 184.411 207.555 184.48 207.928 184.48H209.048V186H207.608C206.787 186 206.158 185.808 205.72 185.424C205.283 185.04 205.064 184.416 205.064 183.552V178.672H204.024V177.184H205.064V174.992H206.904V177.184H209.048V178.672H206.904ZM210.281 181.552C210.281 180.667 210.463 179.883 210.825 179.2C211.199 178.517 211.7 177.989 212.329 177.616C212.969 177.232 213.673 177.04 214.441 177.04C215.135 177.04 215.737 177.179 216.249 177.456C216.772 177.723 217.188 178.059 217.497 178.464V177.184H219.337V186H217.497V184.688C217.188 185.104 216.767 185.451 216.233 185.728C215.7 186.005 215.092 186.144 214.409 186.144C213.652 186.144 212.959 185.952 212.329 185.568C211.7 185.173 211.199 184.629 210.825 183.936C210.463 183.232 210.281 182.437 210.281 181.552ZM217.497 181.584C217.497 180.976 217.369 180.448 217.113 180C216.868 179.552 216.543 179.211 216.137 178.976C215.732 178.741 215.295 178.624 214.825 178.624C214.356 178.624 213.919 178.741 213.513 178.976C213.108 179.2 212.777 179.536 212.521 179.984C212.276 180.421 212.153 180.944 212.153 181.552C212.153 182.16 212.276 182.693 212.521 183.152C212.777 183.611 213.108 183.963 213.513 184.208C213.929 184.443 214.367 184.56 214.825 184.56C215.295 184.56 215.732 184.443 216.137 184.208C216.543 183.973 216.868 183.632 217.113 183.184C217.369 182.725 217.497 182.192 217.497 181.584ZM223.717 178.464C223.984 178.016 224.336 177.669 224.773 177.424C225.221 177.168 225.749 177.04 226.357 177.04V178.928H225.893C225.178 178.928 224.634 179.109 224.261 179.472C223.898 179.835 223.717 180.464 223.717 181.36V186H221.893V177.184H223.717V178.464ZM229.122 176.016C228.791 176.016 228.514 175.904 228.29 175.68C228.066 175.456 227.954 175.179 227.954 174.848C227.954 174.517 228.066 174.24 228.29 174.016C228.514 173.792 228.791 173.68 229.122 173.68C229.442 173.68 229.714 173.792 229.938 174.016C230.162 174.24 230.274 174.517 230.274 174.848C230.274 175.179 230.162 175.456 229.938 175.68C229.714 175.904 229.442 176.016 229.122 176.016ZM230.018 177.184V186H228.194V177.184H230.018ZM231.964 181.552C231.964 180.667 232.146 179.883 232.508 179.2C232.882 178.517 233.383 177.989 234.012 177.616C234.652 177.232 235.356 177.04 236.124 177.04C236.818 177.04 237.42 177.179 237.932 177.456C238.455 177.723 238.871 178.059 239.18 178.464V177.184H241.02V186H239.18V184.688C238.871 185.104 238.45 185.451 237.916 185.728C237.383 186.005 236.775 186.144 236.092 186.144C235.335 186.144 234.642 185.952 234.012 185.568C233.383 185.173 232.882 184.629 232.508 183.936C232.146 183.232 231.964 182.437 231.964 181.552ZM239.18 181.584C239.18 180.976 239.052 180.448 238.796 180C238.551 179.552 238.226 179.211 237.82 178.976C237.415 178.741 236.978 178.624 236.508 178.624C236.039 178.624 235.602 178.741 235.196 178.976C234.791 179.2 234.46 179.536 234.204 179.984C233.959 180.421 233.836 180.944 233.836 181.552C233.836 182.16 233.959 182.693 234.204 183.152C234.46 183.611 234.791 183.963 235.196 184.208C235.612 184.443 236.05 184.56 236.508 184.56C236.978 184.56 237.415 184.443 237.82 184.208C238.226 183.973 238.551 183.632 238.796 183.184C239.052 182.725 239.18 182.192 239.18 181.584ZM248.024 177.04C248.718 177.04 249.336 177.184 249.88 177.472C250.435 177.76 250.867 178.187 251.176 178.752C251.486 179.317 251.64 180 251.64 180.8V186H249.832V181.072C249.832 180.283 249.635 179.68 249.24 179.264C248.846 178.837 248.307 178.624 247.624 178.624C246.942 178.624 246.398 178.837 245.992 179.264C245.598 179.68 245.4 180.283 245.4 181.072V186H243.576V177.184H245.4V178.192C245.699 177.829 246.078 177.547 246.536 177.344C247.006 177.141 247.502 177.04 248.024 177.04Z" fill="white"/>
<path d="M180.503 223.112C179.468 223.112 178.514 222.872 177.639 222.392C176.775 221.901 176.087 221.224 175.575 220.36C175.074 219.485 174.823 218.504 174.823 217.416C174.823 216.328 175.074 215.352 175.575 214.488C176.087 213.624 176.775 212.952 177.639 212.472C178.514 211.981 179.468 211.736 180.503 211.736C181.548 211.736 182.503 211.981 183.367 212.472C184.242 212.952 184.93 213.624 185.431 214.488C185.932 215.352 186.183 216.328 186.183 217.416C186.183 218.504 185.932 219.485 185.431 220.36C184.93 221.224 184.242 221.901 183.367 222.392C182.503 222.872 181.548 223.112 180.503 223.112ZM180.503 221.528C181.239 221.528 181.895 221.363 182.471 221.032C183.047 220.691 183.495 220.211 183.815 219.592C184.146 218.963 184.311 218.237 184.311 217.416C184.311 216.595 184.146 215.875 183.815 215.256C183.495 214.637 183.047 214.163 182.471 213.832C181.895 213.501 181.239 213.336 180.503 213.336C179.767 213.336 179.111 213.501 178.535 213.832C177.959 214.163 177.506 214.637 177.175 215.256C176.855 215.875 176.695 216.595 176.695 217.416C176.695 218.237 176.855 218.963 177.175 219.592C177.506 220.211 177.959 220.691 178.535 221.032C179.111 221.363 179.767 221.528 180.503 221.528ZM189.962 215.464C190.228 215.016 190.58 214.669 191.018 214.424C191.466 214.168 191.994 214.04 192.602 214.04V215.928H192.138C191.423 215.928 190.879 216.109 190.506 216.472C190.143 216.835 189.962 217.464 189.962 218.36V223H188.138V214.184H189.962V215.464ZM197.99 214.04C198.673 214.04 199.276 214.179 199.798 214.456C200.332 214.723 200.748 215.059 201.046 215.464V214.184H202.886V223.144C202.886 223.955 202.716 224.675 202.374 225.304C202.033 225.944 201.537 226.445 200.886 226.808C200.246 227.171 199.478 227.352 198.582 227.352C197.388 227.352 196.396 227.069 195.606 226.504C194.817 225.949 194.369 225.192 194.262 224.232H196.07C196.209 224.691 196.502 225.059 196.95 225.336C197.409 225.624 197.953 225.768 198.582 225.768C199.318 225.768 199.91 225.544 200.358 225.096C200.817 224.648 201.046 223.997 201.046 223.144V221.672C200.737 222.088 200.316 222.44 199.782 222.728C199.26 223.005 198.662 223.144 197.99 223.144C197.222 223.144 196.518 222.952 195.878 222.568C195.249 222.173 194.748 221.629 194.374 220.936C194.012 220.232 193.83 219.437 193.83 218.552C193.83 217.667 194.012 216.883 194.374 216.2C194.748 215.517 195.249 214.989 195.878 214.616C196.518 214.232 197.222 214.04 197.99 214.04ZM201.046 218.584C201.046 217.976 200.918 217.448 200.662 217C200.417 216.552 200.092 216.211 199.686 215.976C199.281 215.741 198.844 215.624 198.374 215.624C197.905 215.624 197.468 215.741 197.062 215.976C196.657 216.2 196.326 216.536 196.07 216.984C195.825 217.421 195.702 217.944 195.702 218.552C195.702 219.16 195.825 219.693 196.07 220.152C196.326 220.611 196.657 220.963 197.062 221.208C197.478 221.443 197.916 221.56 198.374 221.56C198.844 221.56 199.281 221.443 199.686 221.208C200.092 220.973 200.417 220.632 200.662 220.184C200.918 219.725 201.046 219.192 201.046 218.584ZM204.834 218.552C204.834 217.667 205.016 216.883 205.378 216.2C205.752 215.517 206.253 214.989 206.882 214.616C207.522 214.232 208.226 214.04 208.994 214.04C209.688 214.04 210.29 214.179 210.802 214.456C211.325 214.723 211.741 215.059 212.05 215.464V214.184H213.89V223H212.05V221.688C211.741 222.104 211.32 222.451 210.786 222.728C210.253 223.005 209.645 223.144 208.962 223.144C208.205 223.144 207.512 222.952 206.882 222.568C206.253 222.173 205.752 221.629 205.378 220.936C205.016 220.232 204.834 219.437 204.834 218.552ZM212.05 218.584C212.05 217.976 211.922 217.448 211.666 217C211.421 216.552 211.096 216.211 210.69 215.976C210.285 215.741 209.848 215.624 209.378 215.624C208.909 215.624 208.472 215.741 208.066 215.976C207.661 216.2 207.33 216.536 207.074 216.984C206.829 217.421 206.706 217.944 206.706 218.552C206.706 219.16 206.829 219.693 207.074 220.152C207.33 220.611 207.661 220.963 208.066 221.208C208.482 221.443 208.92 221.56 209.378 221.56C209.848 221.56 210.285 221.443 210.69 221.208C211.096 220.973 211.421 220.632 211.666 220.184C211.922 219.725 212.05 219.192 212.05 218.584ZM220.894 214.04C221.587 214.04 222.206 214.184 222.75 214.472C223.305 214.76 223.737 215.187 224.046 215.752C224.355 216.317 224.51 217 224.51 217.8V223H222.702V218.072C222.702 217.283 222.505 216.68 222.11 216.264C221.715 215.837 221.177 215.624 220.494 215.624C219.811 215.624 219.267 215.837 218.862 216.264C218.467 216.68 218.27 217.283 218.27 218.072V223H216.446V214.184H218.27V215.192C218.569 214.829 218.947 214.547 219.406 214.344C219.875 214.141 220.371 214.04 220.894 214.04ZM227.925 213.016C227.594 213.016 227.317 212.904 227.093 212.68C226.869 212.456 226.757 212.179 226.757 211.848C226.757 211.517 226.869 211.24 227.093 211.016C227.317 210.792 227.594 210.68 227.925 210.68C228.245 210.68 228.517 210.792 228.741 211.016C228.965 211.24 229.077 211.517 229.077 211.848C229.077 212.179 228.965 212.456 228.741 212.68C228.517 212.904 228.245 213.016 227.925 213.016ZM228.821 214.184V223H226.997V214.184H228.821ZM230.767 218.584C230.767 217.677 230.949 216.883 231.311 216.2C231.685 215.507 232.197 214.973 232.847 214.6C233.498 214.227 234.245 214.04 235.087 214.04C236.154 214.04 237.034 214.296 237.727 214.808C238.431 215.309 238.906 216.029 239.151 216.968H237.183C237.023 216.531 236.767 216.189 236.415 215.944C236.063 215.699 235.621 215.576 235.087 215.576C234.341 215.576 233.743 215.843 233.295 216.376C232.858 216.899 232.639 217.635 232.639 218.584C232.639 219.533 232.858 220.275 233.295 220.808C233.743 221.341 234.341 221.608 235.087 221.608C236.143 221.608 236.842 221.144 237.183 220.216H239.151C238.895 221.112 238.415 221.827 237.711 222.36C237.007 222.883 236.133 223.144 235.087 223.144C234.245 223.144 233.498 222.957 232.847 222.584C232.197 222.2 231.685 221.667 231.311 220.984C230.949 220.291 230.767 219.491 230.767 218.584Z" fill="white"/>
<path d="M173.86 248.88V250.368H169.14V253.648H172.82V255.136H169.14V260H167.316V248.88H173.86ZM175.102 255.552C175.102 254.667 175.284 253.883 175.646 253.2C176.02 252.517 176.521 251.989 177.15 251.616C177.79 251.232 178.494 251.04 179.262 251.04C179.956 251.04 180.558 251.179 181.07 251.456C181.593 251.723 182.009 252.059 182.318 252.464V251.184H184.158V260H182.318V258.688C182.009 259.104 181.588 259.451 181.054 259.728C180.521 260.005 179.913 260.144 179.23 260.144C178.473 260.144 177.78 259.952 177.15 259.568C176.521 259.173 176.02 258.629 175.646 257.936C175.284 257.232 175.102 256.437 175.102 255.552ZM182.318 255.584C182.318 254.976 182.19 254.448 181.934 254C181.689 253.552 181.364 253.211 180.958 252.976C180.553 252.741 180.116 252.624 179.646 252.624C179.177 252.624 178.74 252.741 178.334 252.976C177.929 253.2 177.598 253.536 177.342 253.984C177.097 254.421 176.974 254.944 176.974 255.552C176.974 256.16 177.097 256.693 177.342 257.152C177.598 257.611 177.929 257.963 178.334 258.208C178.75 258.443 179.188 258.56 179.646 258.56C180.116 258.56 180.553 258.443 180.958 258.208C181.364 257.973 181.689 257.632 181.934 257.184C182.19 256.725 182.318 256.192 182.318 255.584ZM187.642 250.016C187.311 250.016 187.034 249.904 186.81 249.68C186.586 249.456 186.474 249.179 186.474 248.848C186.474 248.517 186.586 248.24 186.81 248.016C187.034 247.792 187.311 247.68 187.642 247.68C187.962 247.68 188.234 247.792 188.458 248.016C188.682 248.24 188.794 248.517 188.794 248.848C188.794 249.179 188.682 249.456 188.458 249.68C188.234 249.904 187.962 250.016 187.642 250.016ZM188.538 251.184V260H186.714V251.184H188.538ZM192.917 252.464C193.183 252.016 193.535 251.669 193.973 251.424C194.421 251.168 194.949 251.04 195.557 251.04V252.928H195.093C194.378 252.928 193.834 253.109 193.461 253.472C193.098 253.835 192.917 254.464 192.917 255.36V260H191.093V251.184H192.917V252.464ZM208.894 248.88V250.368H205.934V260H204.11V250.368H201.134V248.88H208.894ZM212.725 252.464C212.992 252.016 213.344 251.669 213.781 251.424C214.229 251.168 214.757 251.04 215.365 251.04V252.928H214.901C214.186 252.928 213.642 253.109 213.269 253.472C212.906 253.835 212.725 254.464 212.725 255.36V260H210.901V251.184H212.725V252.464ZM216.594 255.552C216.594 254.667 216.775 253.883 217.138 253.2C217.511 252.517 218.012 251.989 218.642 251.616C219.282 251.232 219.986 251.04 220.754 251.04C221.447 251.04 222.05 251.179 222.562 251.456C223.084 251.723 223.5 252.059 223.81 252.464V251.184H225.65V260H223.81V258.688C223.5 259.104 223.079 259.451 222.546 259.728C222.012 260.005 221.404 260.144 220.722 260.144C219.964 260.144 219.271 259.952 218.642 259.568C218.012 259.173 217.511 258.629 217.138 257.936C216.775 257.232 216.594 256.437 216.594 255.552ZM223.81 255.584C223.81 254.976 223.682 254.448 223.426 254C223.18 253.552 222.855 253.211 222.45 252.976C222.044 252.741 221.607 252.624 221.138 252.624C220.668 252.624 220.231 252.741 219.826 252.976C219.42 253.2 219.09 253.536 218.834 253.984C218.588 254.421 218.466 254.944 218.466 255.552C218.466 256.16 218.588 256.693 218.834 257.152C219.09 257.611 219.42 257.963 219.826 258.208C220.242 258.443 220.679 258.56 221.138 258.56C221.607 258.56 222.044 258.443 222.45 258.208C222.855 257.973 223.18 257.632 223.426 257.184C223.682 256.725 223.81 256.192 223.81 255.584ZM227.597 255.552C227.597 254.667 227.779 253.883 228.141 253.2C228.515 252.517 229.016 251.989 229.645 251.616C230.285 251.232 230.995 251.04 231.773 251.04C232.349 251.04 232.915 251.168 233.469 251.424C234.035 251.669 234.483 252 234.813 252.416V248.16H236.653V260H234.813V258.672C234.515 259.099 234.099 259.451 233.565 259.728C233.043 260.005 232.44 260.144 231.757 260.144C230.989 260.144 230.285 259.952 229.645 259.568C229.016 259.173 228.515 258.629 228.141 257.936C227.779 257.232 227.597 256.437 227.597 255.552ZM234.813 255.584C234.813 254.976 234.685 254.448 234.429 254C234.184 253.552 233.859 253.211 233.453 252.976C233.048 252.741 232.611 252.624 232.141 252.624C231.672 252.624 231.235 252.741 230.829 252.976C230.424 253.2 230.093 253.536 229.837 253.984C229.592 254.421 229.469 254.944 229.469 255.552C229.469 256.16 229.592 256.693 229.837 257.152C230.093 257.611 230.424 257.963 230.829 258.208C231.245 258.443 231.683 258.56 232.141 258.56C232.611 258.56 233.048 258.443 233.453 258.208C233.859 257.973 234.184 257.632 234.429 257.184C234.685 256.725 234.813 256.192 234.813 255.584ZM247.289 255.376C247.289 255.707 247.268 256.005 247.225 256.272H240.489C240.542 256.976 240.804 257.541 241.273 257.968C241.742 258.395 242.318 258.608 243.001 258.608C243.982 258.608 244.676 258.197 245.081 257.376H247.049C246.782 258.187 246.297 258.853 245.593 259.376C244.9 259.888 244.036 260.144 243.001 260.144C242.158 260.144 241.401 259.957 240.729 259.584C240.068 259.2 239.545 258.667 239.161 257.984C238.788 257.291 238.601 256.491 238.601 255.584C238.601 254.677 238.782 253.883 239.145 253.2C239.518 252.507 240.036 251.973 240.697 251.6C241.369 251.227 242.137 251.04 243.001 251.04C243.833 251.04 244.574 251.221 245.225 251.584C245.876 251.947 246.382 252.459 246.745 253.12C247.108 253.771 247.289 254.523 247.289 255.376ZM245.385 254.8C245.374 254.128 245.134 253.589 244.665 253.184C244.196 252.779 243.614 252.576 242.921 252.576C242.292 252.576 241.753 252.779 241.305 253.184C240.857 253.579 240.59 254.117 240.505 254.8H245.385Z" fill="white"/>
<path d="M163.204 289.192C163.204 289.757 163.07 290.291 162.804 290.792C162.537 291.293 162.11 291.704 161.524 292.024C160.937 292.333 160.185 292.488 159.268 292.488H157.252V297H155.428V285.88H159.268C160.121 285.88 160.841 286.029 161.428 286.328C162.025 286.616 162.468 287.011 162.756 287.512C163.054 288.013 163.204 288.573 163.204 289.192ZM159.268 291C159.961 291 160.478 290.845 160.82 290.536C161.161 290.216 161.332 289.768 161.332 289.192C161.332 287.976 160.644 287.368 159.268 287.368H157.252V291H159.268ZM164.495 292.552C164.495 291.667 164.676 290.883 165.039 290.2C165.412 289.517 165.914 288.989 166.543 288.616C167.183 288.232 167.887 288.04 168.655 288.04C169.348 288.04 169.951 288.179 170.463 288.456C170.986 288.723 171.402 289.059 171.711 289.464V288.184H173.551V297H171.711V295.688C171.402 296.104 170.98 296.451 170.447 296.728C169.914 297.005 169.306 297.144 168.623 297.144C167.866 297.144 167.172 296.952 166.543 296.568C165.914 296.173 165.412 295.629 165.039 294.936C164.676 294.232 164.495 293.437 164.495 292.552ZM171.711 292.584C171.711 291.976 171.583 291.448 171.327 291C171.082 290.552 170.756 290.211 170.351 289.976C169.946 289.741 169.508 289.624 169.039 289.624C168.57 289.624 168.132 289.741 167.727 289.976C167.322 290.2 166.991 290.536 166.735 290.984C166.49 291.421 166.367 291.944 166.367 292.552C166.367 293.16 166.49 293.693 166.735 294.152C166.991 294.611 167.322 294.963 167.727 295.208C168.143 295.443 168.58 295.56 169.039 295.56C169.508 295.56 169.946 295.443 170.351 295.208C170.756 294.973 171.082 294.632 171.327 294.184C171.583 293.725 171.711 293.192 171.711 292.584ZM177.931 285.16V297H176.107V285.16H177.931ZM191.158 288.04C191.851 288.04 192.47 288.184 193.014 288.472C193.568 288.76 194 289.187 194.31 289.752C194.63 290.317 194.79 291 194.79 291.8V297H192.982V292.072C192.982 291.283 192.784 290.68 192.39 290.264C191.995 289.837 191.456 289.624 190.774 289.624C190.091 289.624 189.547 289.837 189.142 290.264C188.747 290.68 188.55 291.283 188.55 292.072V297H186.742V292.072C186.742 291.283 186.544 290.68 186.15 290.264C185.755 289.837 185.216 289.624 184.534 289.624C183.851 289.624 183.307 289.837 182.902 290.264C182.507 290.68 182.31 291.283 182.31 292.072V297H180.486V288.184H182.31V289.192C182.608 288.829 182.987 288.547 183.446 288.344C183.904 288.141 184.395 288.04 184.918 288.04C185.622 288.04 186.251 288.189 186.806 288.488C187.36 288.787 187.787 289.219 188.086 289.784C188.352 289.251 188.768 288.829 189.334 288.52C189.899 288.2 190.507 288.04 191.158 288.04ZM206.659 297.112C205.624 297.112 204.67 296.872 203.795 296.392C202.931 295.901 202.243 295.224 201.731 294.36C201.23 293.485 200.979 292.504 200.979 291.416C200.979 290.328 201.23 289.352 201.731 288.488C202.243 287.624 202.931 286.952 203.795 286.472C204.67 285.981 205.624 285.736 206.659 285.736C207.704 285.736 208.659 285.981 209.523 286.472C210.398 286.952 211.086 287.624 211.587 288.488C212.088 289.352 212.339 290.328 212.339 291.416C212.339 292.504 212.088 293.485 211.587 294.36C211.086 295.224 210.398 295.901 209.523 296.392C208.659 296.872 207.704 297.112 206.659 297.112ZM206.659 295.528C207.395 295.528 208.051 295.363 208.627 295.032C209.203 294.691 209.651 294.211 209.971 293.592C210.302 292.963 210.467 292.237 210.467 291.416C210.467 290.595 210.302 289.875 209.971 289.256C209.651 288.637 209.203 288.163 208.627 287.832C208.051 287.501 207.395 287.336 206.659 287.336C205.923 287.336 205.267 287.501 204.691 287.832C204.115 288.163 203.662 288.637 203.331 289.256C203.011 289.875 202.851 290.595 202.851 291.416C202.851 292.237 203.011 292.963 203.331 293.592C203.662 294.211 204.115 294.691 204.691 295.032C205.267 295.363 205.923 295.528 206.659 295.528ZM215.222 287.016C214.891 287.016 214.614 286.904 214.39 286.68C214.166 286.456 214.054 286.179 214.054 285.848C214.054 285.517 214.166 285.24 214.39 285.016C214.614 284.792 214.891 284.68 215.222 284.68C215.542 284.68 215.814 284.792 216.038 285.016C216.262 285.24 216.374 285.517 216.374 285.848C216.374 286.179 216.262 286.456 216.038 286.68C215.814 286.904 215.542 287.016 215.222 287.016ZM216.118 288.184V297H214.294V288.184H216.118ZM220.497 285.16V297H218.672V285.16H220.497ZM233.912 285.88V287.368H229.192V290.648H232.872V292.136H229.192V297H227.368V285.88H233.912ZM237.586 289.464C237.853 289.016 238.205 288.669 238.642 288.424C239.09 288.168 239.618 288.04 240.226 288.04V289.928H239.762C239.047 289.928 238.503 290.109 238.13 290.472C237.767 290.835 237.586 291.464 237.586 292.36V297H235.762V288.184H237.586V289.464ZM250.143 292.376C250.143 292.707 250.121 293.005 250.079 293.272H243.343C243.396 293.976 243.657 294.541 244.127 294.968C244.596 295.395 245.172 295.608 245.855 295.608C246.836 295.608 247.529 295.197 247.935 294.376H249.903C249.636 295.187 249.151 295.853 248.447 296.376C247.753 296.888 246.889 297.144 245.855 297.144C245.012 297.144 244.255 296.957 243.583 296.584C242.921 296.2 242.399 295.667 242.015 294.984C241.641 294.291 241.455 293.491 241.455 292.584C241.455 291.677 241.636 290.883 241.999 290.2C242.372 289.507 242.889 288.973 243.551 288.6C244.223 288.227 244.991 288.04 245.855 288.04C246.687 288.04 247.428 288.221 248.079 288.584C248.729 288.947 249.236 289.459 249.599 290.12C249.961 290.771 250.143 291.523 250.143 292.376ZM248.239 291.8C248.228 291.128 247.988 290.589 247.519 290.184C247.049 289.779 246.468 289.576 245.775 289.576C245.145 289.576 244.607 289.779 244.159 290.184C243.711 290.579 243.444 291.117 243.359 291.8H248.239ZM260.177 292.376C260.177 292.707 260.156 293.005 260.113 293.272H253.377C253.431 293.976 253.692 294.541 254.161 294.968C254.631 295.395 255.207 295.608 255.889 295.608C256.871 295.608 257.564 295.197 257.969 294.376H259.937C259.671 295.187 259.185 295.853 258.481 296.376C257.788 296.888 256.924 297.144 255.889 297.144C255.047 297.144 254.289 296.957 253.617 296.584C252.956 296.2 252.433 295.667 252.049 294.984C251.676 294.291 251.489 293.491 251.489 292.584C251.489 291.677 251.671 290.883 252.033 290.2C252.407 289.507 252.924 288.973 253.585 288.6C254.257 288.227 255.025 288.04 255.889 288.04C256.721 288.04 257.463 288.221 258.113 288.584C258.764 288.947 259.271 289.459 259.633 290.12C259.996 290.771 260.177 291.523 260.177 292.376ZM258.273 291.8C258.263 291.128 258.023 290.589 257.553 290.184C257.084 289.779 256.503 289.576 255.809 289.576C255.18 289.576 254.641 289.779 254.193 290.184C253.745 290.579 253.479 291.117 253.393 291.8H258.273Z" fill="white"/>
<path d="M177.327 331.728H172.671L171.871 334H169.967L173.951 322.864H176.063L180.047 334H178.127L177.327 331.728ZM176.815 330.24L175.007 325.072L173.183 330.24H176.815ZM181.331 329.552C181.331 328.667 181.512 327.883 181.875 327.2C182.248 326.517 182.749 325.989 183.379 325.616C184.019 325.232 184.728 325.04 185.507 325.04C186.083 325.04 186.648 325.168 187.203 325.424C187.768 325.669 188.216 326 188.547 326.416V322.16H190.387V334H188.547V332.672C188.248 333.099 187.832 333.451 187.299 333.728C186.776 334.005 186.173 334.144 185.491 334.144C184.723 334.144 184.019 333.952 183.379 333.568C182.749 333.173 182.248 332.629 181.875 331.936C181.512 331.232 181.331 330.437 181.331 329.552ZM188.547 329.584C188.547 328.976 188.419 328.448 188.163 328C187.917 327.552 187.592 327.211 187.187 326.976C186.781 326.741 186.344 326.624 185.875 326.624C185.405 326.624 184.968 326.741 184.563 326.976C184.157 327.2 183.827 327.536 183.571 327.984C183.325 328.421 183.203 328.944 183.203 329.552C183.203 330.16 183.325 330.693 183.571 331.152C183.827 331.611 184.157 331.963 184.563 332.208C184.979 332.443 185.416 332.56 185.875 332.56C186.344 332.56 186.781 332.443 187.187 332.208C187.592 331.973 187.917 331.632 188.163 331.184C188.419 330.725 188.547 330.192 188.547 329.584ZM192.335 329.552C192.335 328.667 192.516 327.883 192.879 327.2C193.252 326.517 193.753 325.989 194.383 325.616C195.023 325.232 195.732 325.04 196.511 325.04C197.087 325.04 197.652 325.168 198.207 325.424C198.772 325.669 199.22 326 199.551 326.416V322.16H201.391V334H199.551V332.672C199.252 333.099 198.836 333.451 198.303 333.728C197.78 334.005 197.177 334.144 196.495 334.144C195.727 334.144 195.023 333.952 194.383 333.568C193.753 333.173 193.252 332.629 192.879 331.936C192.516 331.232 192.335 330.437 192.335 329.552ZM199.551 329.584C199.551 328.976 199.423 328.448 199.167 328C198.921 327.552 198.596 327.211 198.191 326.976C197.785 326.741 197.348 326.624 196.879 326.624C196.409 326.624 195.972 326.741 195.567 326.976C195.161 327.2 194.831 327.536 194.575 327.984C194.329 328.421 194.207 328.944 194.207 329.552C194.207 330.16 194.329 330.693 194.575 331.152C194.831 331.611 195.161 331.963 195.567 332.208C195.983 332.443 196.42 332.56 196.879 332.56C197.348 332.56 197.785 332.443 198.191 332.208C198.596 331.973 198.921 331.632 199.167 331.184C199.423 330.725 199.551 330.192 199.551 329.584ZM204.874 324.016C204.544 324.016 204.266 323.904 204.042 323.68C203.818 323.456 203.706 323.179 203.706 322.848C203.706 322.517 203.818 322.24 204.042 322.016C204.266 321.792 204.544 321.68 204.874 321.68C205.194 321.68 205.466 321.792 205.69 322.016C205.914 322.24 206.026 322.517 206.026 322.848C206.026 323.179 205.914 323.456 205.69 323.68C205.466 323.904 205.194 324.016 204.874 324.016ZM205.77 325.184V334H203.946V325.184H205.77ZM210.453 326.672V331.552C210.453 331.883 210.528 332.123 210.677 332.272C210.837 332.411 211.104 332.48 211.477 332.48H212.597V334H211.157C210.336 334 209.706 333.808 209.269 333.424C208.832 333.04 208.613 332.416 208.613 331.552V326.672H207.573V325.184H208.613V322.992H210.453V325.184H212.597V326.672H210.453ZM215.366 324.016C215.035 324.016 214.758 323.904 214.534 323.68C214.31 323.456 214.198 323.179 214.198 322.848C214.198 322.517 214.31 322.24 214.534 322.016C214.758 321.792 215.035 321.68 215.366 321.68C215.686 321.68 215.958 321.792 216.182 322.016C216.406 322.24 216.518 322.517 216.518 322.848C216.518 323.179 216.406 323.456 216.182 323.68C215.958 323.904 215.686 324.016 215.366 324.016ZM216.262 325.184V334H214.438V325.184H216.262ZM222.225 332.368L224.721 325.184H226.657L223.297 334H221.121L217.777 325.184H219.729L222.225 332.368ZM236.276 329.376C236.276 329.707 236.254 330.005 236.212 330.272H229.476C229.529 330.976 229.79 331.541 230.26 331.968C230.729 332.395 231.305 332.608 231.988 332.608C232.969 332.608 233.662 332.197 234.068 331.376H236.036C235.769 332.187 235.284 332.853 234.58 333.376C233.886 333.888 233.022 334.144 231.988 334.144C231.145 334.144 230.388 333.957 229.716 333.584C229.054 333.2 228.532 332.667 228.148 331.984C227.774 331.291 227.588 330.491 227.588 329.584C227.588 328.677 227.769 327.883 228.132 327.2C228.505 326.507 229.022 325.973 229.684 325.6C230.356 325.227 231.124 325.04 231.988 325.04C232.82 325.04 233.561 325.221 234.212 325.584C234.862 325.947 235.369 326.459 235.732 327.12C236.094 327.771 236.276 328.523 236.276 329.376ZM234.372 328.8C234.361 328.128 234.121 327.589 233.652 327.184C233.182 326.779 232.601 326.576 231.908 326.576C231.278 326.576 230.74 326.779 230.292 327.184C229.844 327.579 229.577 328.117 229.492 328.8H234.372ZM241.431 334.144C240.737 334.144 240.113 334.021 239.559 333.776C239.015 333.52 238.583 333.179 238.263 332.752C237.943 332.315 237.772 331.829 237.751 331.296H239.639C239.671 331.669 239.847 331.984 240.167 332.24C240.497 332.485 240.908 332.608 241.399 332.608C241.911 332.608 242.305 332.512 242.583 332.32C242.871 332.117 243.015 331.861 243.015 331.552C243.015 331.221 242.855 330.976 242.535 330.816C242.225 330.656 241.729 330.48 241.047 330.288C240.385 330.107 239.847 329.931 239.431 329.76C239.015 329.589 238.652 329.328 238.343 328.976C238.044 328.624 237.895 328.16 237.895 327.584C237.895 327.115 238.033 326.688 238.311 326.304C238.588 325.909 238.983 325.6 239.495 325.376C240.017 325.152 240.615 325.04 241.287 325.04C242.289 325.04 243.095 325.296 243.703 325.808C244.321 326.309 244.652 326.997 244.695 327.872H242.871C242.839 327.477 242.679 327.163 242.391 326.928C242.103 326.693 241.713 326.576 241.223 326.576C240.743 326.576 240.375 326.667 240.119 326.848C239.863 327.029 239.735 327.269 239.735 327.568C239.735 327.803 239.82 328 239.991 328.16C240.161 328.32 240.369 328.448 240.615 328.544C240.86 328.629 241.223 328.741 241.703 328.88C242.343 329.051 242.865 329.227 243.271 329.408C243.687 329.579 244.044 329.835 244.343 330.176C244.641 330.517 244.796 330.971 244.807 331.536C244.807 332.037 244.668 332.485 244.391 332.88C244.113 333.275 243.719 333.584 243.207 333.808C242.705 334.032 242.113 334.144 241.431 334.144Z" fill="white"/>
<path d="M168.663 371H166.839L161.351 362.696V371H159.527V359.864H161.351L166.839 368.152V359.864H168.663V371ZM175.042 371.144C174.21 371.144 173.458 370.957 172.786 370.584C172.114 370.2 171.586 369.667 171.202 368.984C170.818 368.291 170.626 367.491 170.626 366.584C170.626 365.688 170.823 364.893 171.218 364.2C171.613 363.507 172.151 362.973 172.834 362.6C173.517 362.227 174.279 362.04 175.122 362.04C175.965 362.04 176.727 362.227 177.41 362.6C178.093 362.973 178.631 363.507 179.026 364.2C179.421 364.893 179.618 365.688 179.618 366.584C179.618 367.48 179.415 368.275 179.01 368.968C178.605 369.661 178.05 370.2 177.346 370.584C176.653 370.957 175.885 371.144 175.042 371.144ZM175.042 369.56C175.511 369.56 175.949 369.448 176.354 369.224C176.77 369 177.106 368.664 177.362 368.216C177.618 367.768 177.746 367.224 177.746 366.584C177.746 365.944 177.623 365.405 177.378 364.968C177.133 364.52 176.807 364.184 176.402 363.96C175.997 363.736 175.559 363.624 175.09 363.624C174.621 363.624 174.183 363.736 173.778 363.96C173.383 364.184 173.069 364.52 172.834 364.968C172.599 365.405 172.482 365.944 172.482 366.584C172.482 367.533 172.722 368.269 173.202 368.792C173.693 369.304 174.306 369.56 175.042 369.56ZM184.989 369.368L187.485 362.184H189.421L186.061 371H183.885L180.541 362.184H182.493L184.989 369.368ZM190.352 366.552C190.352 365.667 190.533 364.883 190.896 364.2C191.269 363.517 191.771 362.989 192.4 362.616C193.04 362.232 193.744 362.04 194.512 362.04C195.205 362.04 195.808 362.179 196.32 362.456C196.843 362.723 197.259 363.059 197.568 363.464V362.184H199.408V371H197.568V369.688C197.259 370.104 196.837 370.451 196.304 370.728C195.771 371.005 195.163 371.144 194.48 371.144C193.723 371.144 193.029 370.952 192.4 370.568C191.771 370.173 191.269 369.629 190.896 368.936C190.533 368.232 190.352 367.437 190.352 366.552ZM197.568 366.584C197.568 365.976 197.44 365.448 197.184 365C196.939 364.552 196.613 364.211 196.208 363.976C195.803 363.741 195.365 363.624 194.896 363.624C194.427 363.624 193.989 363.741 193.584 363.976C193.179 364.2 192.848 364.536 192.592 364.984C192.347 365.421 192.224 365.944 192.224 366.552C192.224 367.16 192.347 367.693 192.592 368.152C192.848 368.611 193.179 368.963 193.584 369.208C194 369.443 194.437 369.56 194.896 369.56C195.365 369.56 195.803 369.443 196.208 369.208C196.613 368.973 196.939 368.632 197.184 368.184C197.44 367.725 197.568 367.192 197.568 366.584ZM214.328 363.08C214.04 362.525 213.64 362.109 213.128 361.832C212.616 361.544 212.024 361.4 211.352 361.4C210.616 361.4 209.96 361.565 209.384 361.896C208.808 362.227 208.355 362.696 208.024 363.304C207.704 363.912 207.544 364.616 207.544 365.416C207.544 366.216 207.704 366.925 208.024 367.544C208.355 368.152 208.808 368.621 209.384 368.952C209.96 369.283 210.616 369.448 211.352 369.448C212.344 369.448 213.149 369.171 213.768 368.616C214.387 368.061 214.765 367.309 214.904 366.36H210.728V364.904H216.856V366.328C216.739 367.192 216.429 367.987 215.928 368.712C215.437 369.437 214.792 370.019 213.992 370.456C213.203 370.883 212.323 371.096 211.352 371.096C210.307 371.096 209.352 370.856 208.488 370.376C207.624 369.885 206.936 369.208 206.424 368.344C205.923 367.48 205.672 366.504 205.672 365.416C205.672 364.328 205.923 363.352 206.424 362.488C206.936 361.624 207.624 360.952 208.488 360.472C209.363 359.981 210.317 359.736 211.352 359.736C212.536 359.736 213.587 360.029 214.504 360.616C215.432 361.192 216.104 362.013 216.52 363.08H214.328ZM220.639 363.464C220.906 363.016 221.258 362.669 221.695 362.424C222.143 362.168 222.671 362.04 223.279 362.04V363.928H222.815C222.1 363.928 221.556 364.109 221.183 364.472C220.82 364.835 220.639 365.464 220.639 366.36V371H218.815V362.184H220.639V363.464ZM228.94 371.144C228.108 371.144 227.356 370.957 226.684 370.584C226.012 370.2 225.484 369.667 225.1 368.984C224.716 368.291 224.524 367.491 224.524 366.584C224.524 365.688 224.721 364.893 225.116 364.2C225.51 363.507 226.049 362.973 226.732 362.6C227.414 362.227 228.177 362.04 229.02 362.04C229.862 362.04 230.625 362.227 231.308 362.6C231.99 362.973 232.529 363.507 232.924 364.2C233.318 364.893 233.516 365.688 233.516 366.584C233.516 367.48 233.313 368.275 232.908 368.968C232.502 369.661 231.948 370.2 231.244 370.584C230.55 370.957 229.782 371.144 228.94 371.144ZM228.94 369.56C229.409 369.56 229.846 369.448 230.252 369.224C230.668 369 231.004 368.664 231.26 368.216C231.516 367.768 231.644 367.224 231.644 366.584C231.644 365.944 231.521 365.405 231.276 364.968C231.03 364.52 230.705 364.184 230.3 363.96C229.894 363.736 229.457 363.624 228.988 363.624C228.518 363.624 228.081 363.736 227.676 363.96C227.281 364.184 226.966 364.52 226.732 364.968C226.497 365.405 226.38 365.944 226.38 366.584C226.38 367.533 226.62 368.269 227.1 368.792C227.59 369.304 228.204 369.56 228.94 369.56ZM243.463 362.184V371H241.639V369.96C241.351 370.323 240.972 370.611 240.503 370.824C240.044 371.027 239.553 371.128 239.031 371.128C238.337 371.128 237.713 370.984 237.159 370.696C236.615 370.408 236.183 369.981 235.863 369.416C235.553 368.851 235.399 368.168 235.399 367.368V362.184H237.207V367.096C237.207 367.885 237.404 368.493 237.799 368.92C238.193 369.336 238.732 369.544 239.415 369.544C240.097 369.544 240.636 369.336 241.031 368.92C241.436 368.493 241.639 367.885 241.639 367.096V362.184H243.463ZM247.853 363.48C248.163 363.075 248.584 362.733 249.117 362.456C249.651 362.179 250.253 362.04 250.925 362.04C251.693 362.04 252.392 362.232 253.021 362.616C253.661 362.989 254.163 363.517 254.525 364.2C254.888 364.883 255.069 365.667 255.069 366.552C255.069 367.437 254.888 368.232 254.525 368.936C254.163 369.629 253.661 370.173 253.021 370.568C252.392 370.952 251.693 371.144 250.925 371.144C250.253 371.144 249.656 371.011 249.133 370.744C248.611 370.467 248.184 370.125 247.853 369.72V375.192H246.029V362.184H247.853V363.48ZM253.213 366.552C253.213 365.944 253.085 365.421 252.829 364.984C252.584 364.536 252.253 364.2 251.837 363.976C251.432 363.741 250.995 363.624 250.525 363.624C250.067 363.624 249.629 363.741 249.213 363.976C248.808 364.211 248.477 364.552 248.221 365C247.976 365.448 247.853 365.976 247.853 366.584C247.853 367.192 247.976 367.725 248.221 368.184C248.477 368.632 248.808 368.973 249.213 369.208C249.629 369.443 250.067 369.56 250.525 369.56C250.995 369.56 251.432 369.443 251.837 369.208C252.253 368.963 252.584 368.611 252.829 368.152C253.085 367.693 253.213 367.16 253.213 366.552Z" fill="white"/>
<path d="M190.933 137.88L186.757 149H184.645L180.453 137.88H182.405L185.701 147.128L189.013 137.88H190.933ZM200.698 144.376C200.698 144.707 200.677 145.005 200.634 145.272H193.898C193.951 145.976 194.213 146.541 194.682 146.968C195.151 147.395 195.727 147.608 196.41 147.608C197.391 147.608 198.085 147.197 198.49 146.376H200.458C200.191 147.187 199.706 147.853 199.002 148.376C198.309 148.888 197.445 149.144 196.41 149.144C195.567 149.144 194.81 148.957 194.138 148.584C193.477 148.2 192.954 147.667 192.57 146.984C192.197 146.291 192.01 145.491 192.01 144.584C192.01 143.677 192.191 142.883 192.554 142.2C192.927 141.507 193.445 140.973 194.106 140.6C194.778 140.227 195.546 140.04 196.41 140.04C197.242 140.04 197.983 140.221 198.634 140.584C199.285 140.947 199.791 141.459 200.154 142.12C200.517 142.771 200.698 143.523 200.698 144.376ZM198.794 143.8C198.783 143.128 198.543 142.589 198.074 142.184C197.605 141.779 197.023 141.576 196.33 141.576C195.701 141.576 195.162 141.779 194.714 142.184C194.266 142.579 193.999 143.117 193.914 143.8H198.794ZM206.205 140.04C206.888 140.04 207.49 140.179 208.013 140.456C208.546 140.723 208.962 141.059 209.261 141.464V140.184H211.101V149.144C211.101 149.955 210.93 150.675 210.589 151.304C210.248 151.944 209.752 152.445 209.101 152.808C208.461 153.171 207.693 153.352 206.797 153.352C205.602 153.352 204.61 153.069 203.821 152.504C203.032 151.949 202.584 151.192 202.477 150.232H204.285C204.424 150.691 204.717 151.059 205.165 151.336C205.624 151.624 206.168 151.768 206.797 151.768C207.533 151.768 208.125 151.544 208.573 151.096C209.032 150.648 209.261 149.997 209.261 149.144V147.672C208.952 148.088 208.53 148.44 207.997 148.728C207.474 149.005 206.877 149.144 206.205 149.144C205.437 149.144 204.733 148.952 204.093 148.568C203.464 148.173 202.962 147.629 202.589 146.936C202.226 146.232 202.045 145.437 202.045 144.552C202.045 143.667 202.226 142.883 202.589 142.2C202.962 141.517 203.464 140.989 204.093 140.616C204.733 140.232 205.437 140.04 206.205 140.04ZM209.261 144.584C209.261 143.976 209.133 143.448 208.877 143C208.632 142.552 208.306 142.211 207.901 141.976C207.496 141.741 207.058 141.624 206.589 141.624C206.12 141.624 205.682 141.741 205.277 141.976C204.872 142.2 204.541 142.536 204.285 142.984C204.04 143.421 203.917 143.944 203.917 144.552C203.917 145.16 204.04 145.693 204.285 146.152C204.541 146.611 204.872 146.963 205.277 147.208C205.693 147.443 206.13 147.56 206.589 147.56C207.058 147.56 207.496 147.443 207.901 147.208C208.306 146.973 208.632 146.632 208.877 146.184C209.133 145.725 209.261 145.192 209.261 144.584ZM213.049 144.552C213.049 143.667 213.23 142.883 213.593 142.2C213.966 141.517 214.468 140.989 215.097 140.616C215.737 140.232 216.441 140.04 217.209 140.04C217.902 140.04 218.505 140.179 219.017 140.456C219.54 140.723 219.956 141.059 220.265 141.464V140.184H222.105V149H220.265V147.688C219.956 148.104 219.534 148.451 219.001 148.728C218.468 149.005 217.86 149.144 217.177 149.144C216.42 149.144 215.726 148.952 215.097 148.568C214.468 148.173 213.966 147.629 213.593 146.936C213.23 146.232 213.049 145.437 213.049 144.552ZM220.265 144.584C220.265 143.976 220.137 143.448 219.881 143C219.636 142.552 219.31 142.211 218.905 141.976C218.5 141.741 218.062 141.624 217.593 141.624C217.124 141.624 216.686 141.741 216.281 141.976C215.876 142.2 215.545 142.536 215.289 142.984C215.044 143.421 214.921 143.944 214.921 144.552C214.921 145.16 215.044 145.693 215.289 146.152C215.545 146.611 215.876 146.963 216.281 147.208C216.697 147.443 217.134 147.56 217.593 147.56C218.062 147.56 218.5 147.443 218.905 147.208C219.31 146.973 219.636 146.632 219.881 146.184C220.137 145.725 220.265 145.192 220.265 144.584ZM229.109 140.04C229.802 140.04 230.421 140.184 230.965 140.472C231.519 140.76 231.951 141.187 232.261 141.752C232.57 142.317 232.725 143 232.725 143.8V149H230.917V144.072C230.917 143.283 230.719 142.68 230.325 142.264C229.93 141.837 229.391 141.624 228.709 141.624C228.026 141.624 227.482 141.837 227.077 142.264C226.682 142.68 226.485 143.283 226.485 144.072V149H224.661V140.184H226.485V141.192C226.783 140.829 227.162 140.547 227.621 140.344C228.09 140.141 228.586 140.04 229.109 140.04Z" fill="white"/>
<path d="M31.5426 358.529C22.3892 347.912 29.3784 331.498 43.3763 330.739L70.0466 329.292L96.2936 324.435C110.069 321.886 120.871 336.18 114.582 348.637L102.6 372.372L93.7935 397.458C89.1713 410.625 71.3804 412.745 63.6712 401.047L48.9828 378.759L31.5426 358.529Z" fill="white"/>
<path d="M52.7646 364.994L75.7923 341.966C77.0688 340.689 78.7848 339.971 80.5867 339.939L92.3313 339.789C93.2536 339.778 94.1331 339.992 94.8947 340.4C93.983 338.652 92.1382 337.461 90.0145 337.482L78.2807 337.633C76.4788 337.654 74.7627 338.383 73.4863 339.66L50.4585 362.688C49.1714 363.975 49.1714 366.066 50.4585 367.353L52.7645 369.659C51.4775 368.372 51.4775 366.281 52.7646 364.994Z" fill="#5E7296"/>
<path d="M95.9995 342.975L95.9673 345.12L95.9459 346.321L95.8387 354.719C95.8278 355.641 95.6456 356.553 95.3023 357.39L94.8412 358.344C94.5301 358.881 94.1333 359.395 93.6828 359.846L70.655 382.884C69.9364 383.603 68.9818 384 67.9736 384C66.9654 384 66.0108 383.603 65.2922 382.884L50.1154 367.708C49.3969 366.989 49 366.045 49 365.026C49 364.007 49.3969 363.064 50.1154 362.345L73.1433 339.317C74.5161 337.944 76.3395 337.172 78.2808 337.151L90.0253 337.001C91.6235 336.979 93.1357 337.591 94.2726 338.727C95.4096 339.864 96.0209 341.366 95.9995 342.975Z" fill="white"/>
<path fill-rule="evenodd" clip-rule="evenodd" d="M78.2807 337.633L90.0252 337.472C93.0713 337.44 95.5489 339.918 95.5167 342.964L95.3558 354.708C95.3236 356.51 94.6051 358.226 93.3286 359.503L70.3008 382.531C69.0138 383.818 66.9223 383.818 65.6352 382.531L50.4585 367.354C49.1714 366.067 49.1714 363.975 50.4585 362.688L73.4863 339.66C74.7627 338.384 76.4788 337.655 78.2807 337.633ZM86.7539 346.235C87.9551 347.436 89.9072 347.436 91.1084 346.235C92.3097 345.034 92.3097 343.082 91.1084 341.881C89.9073 340.679 87.9552 340.679 86.7539 341.881C85.5526 343.082 85.5526 345.034 86.7539 346.235ZM78.2077 350.043L77.2616 350.11L77.0138 346.629C78.5096 347.598 79.5847 349.424 79.7412 351.594C79.8093 352.538 79.6948 353.443 79.4332 354.261C80.7286 353.211 82.3699 352.629 84.1185 352.739C86.6154 352.896 88.7165 354.422 89.8213 356.594L85.8105 356.337L85.8954 354.947L85.1393 356.298L82.4671 356.128L82.5519 354.738L81.7962 356.09L79.2763 355.932C81.0082 356.301 82.5624 357.3 83.5574 358.862C84.8951 360.963 84.8901 363.562 83.7812 365.737L81.6316 362.363L82.8111 361.605L81.274 361.801L79.8375 359.553L81.0171 358.795L79.4798 358.991L78.7427 357.831C73.14 361.613 68.2212 366.682 64.6295 372.388L61.6426 369.426C66.0546 363.959 71.3422 359.467 76.8663 356.272L74.7298 354.561L75.0923 353.035L74.2043 354.139L72.1014 352.453L72.464 350.928L71.5758 352.032L68.4211 349.503C70.7247 348.624 73.3332 348.901 75.2969 350.475C76.4005 351.359 77.1475 352.531 77.5257 353.82L77.5095 353.591L78.4137 352.943L77.4682 353.011L77.303 350.69L78.2077 350.043Z" fill="#538148"/>
<path d="M73.5946 183.1C92.5732 173.99 112.174 193.591 103.065 212.57L96.6924 225.845C95.5168 228.294 94.7942 230.931 94.5598 233.626L93.2894 248.237C91.4732 269.125 64.472 276.525 52.6936 259.363L44.455 247.358C42.935 245.143 41.0209 243.229 38.8061 241.709L26.8015 233.471C9.63909 221.692 17.0392 194.691 37.9274 192.875L52.5381 191.604C55.2336 191.37 57.8704 190.647 60.3196 189.472L73.5946 183.1Z" fill="white"/>
<path d="M140.676 37.4015C161.366 33.5142 175.226 57.5206 161.515 73.4947L151.924 84.6682C150.155 86.7296 148.774 89.0895 147.85 91.6325L142.841 105.417C135.681 125.123 107.684 125.282 100.749 105.656L95.8984 91.9285C95.0035 89.3958 93.65 87.0515 91.9041 85.0101L82.4408 73.9452C68.9117 58.1262 83.048 33.9603 103.695 37.6122L118.136 40.1666C120.801 40.6379 123.535 40.6223 126.205 40.1207L140.676 37.4015Z" fill="white"/>
<path d="M269.662 29.8961C276.64 10.0346 304.36 10.0346 311.338 29.8962L316.22 43.7888C317.12 46.3518 318.474 48.7273 320.214 50.7991L329.647 62.0288C343.133 78.0832 329.273 102.409 308.808 98.6015L294.494 95.9385C291.854 95.4472 289.146 95.4472 286.506 95.9385L272.191 98.6015C251.727 102.409 237.867 78.0832 251.353 62.0288L260.786 50.7991C262.526 48.7273 263.88 46.3518 264.78 43.7888L269.662 29.8961Z" fill="white"/>
<path d="M355.094 171.121C374.116 162.103 393.622 181.799 384.421 200.733L377.985 213.978C376.797 216.421 376.062 219.054 375.815 221.749L374.474 236.353C372.556 257.232 345.52 264.502 333.825 247.283L325.644 235.238C324.135 233.016 322.23 231.093 320.022 229.562L308.058 221.266C290.952 209.405 298.483 182.439 319.38 180.724L333.996 179.524C336.693 179.303 339.333 178.593 341.788 177.429L355.094 171.121Z" fill="white"/>
<path d="M348.22 229.482C358.835 229.482 367.44 220.868 367.44 210.241C367.44 199.615 358.835 191 348.22 191C337.605 191 329 199.615 329 210.241C329 220.868 337.605 229.482 348.22 229.482Z" fill="#70A750"/>
<path fill-rule="evenodd" clip-rule="evenodd" d="M339.191 202.15C339.242 201.799 339.287 201.447 339.345 201.097C339.488 200.233 339.773 199.413 340.206 198.657C340.406 198.308 340.785 198.105 341.127 197.895C342.215 197.227 343.413 196.875 344.664 196.672C345.664 196.51 346.67 196.435 347.681 196.472C349.315 196.531 350.921 196.779 352.488 197.256C354.068 197.736 355.551 198.416 356.914 199.356C359.148 200.897 360.715 202.932 361.491 205.546C361.771 206.488 361.909 207.458 361.947 208.445C362.021 210.414 361.686 212.318 361.119 214.193C360.753 215.408 360.287 216.581 359.748 217.727C359.544 218.16 359.336 218.591 359.124 219.02C359.113 219.043 359.121 219.119 359.058 219.09C359.043 219.083 359.051 219.025 359.049 218.991C359.129 217.552 358.893 216.198 357.992 215.021C357.242 214.043 356.248 213.411 355.115 212.967C354.092 212.567 353.016 212.401 351.948 212.197C349.578 211.745 347.261 211.117 345.067 210.091C343.739 209.471 342.491 208.72 341.437 207.691C340.207 206.49 339.404 205.054 339.181 203.328C339.131 202.938 339.154 202.543 339.191 202.15Z" fill="#FEFEFE"/>
<path fill-rule="evenodd" clip-rule="evenodd" d="M337.033 205.85C337.106 207.308 337.548 208.635 338.421 209.814C339.043 210.652 339.744 211.418 340.494 212.139C341.036 212.659 341.617 213.137 342.152 213.663C342.825 214.324 343.411 215.054 343.881 215.881C344.419 216.828 344.774 217.838 344.955 218.905C345.134 219.965 345.142 221.031 344.948 222.096C344.837 222.704 344.704 223.303 344.414 223.856C344.395 223.892 344.403 223.942 344.398 223.985C344.196 224.245 343.991 224.181 343.722 224.055C342.448 223.455 341.217 222.781 340.049 221.993C338.901 221.219 337.844 220.336 336.916 219.31C335.501 217.744 334.497 215.948 334.036 213.876C333.746 212.569 333.672 211.24 333.825 209.911C334.047 207.985 334.593 206.149 335.43 204.395C335.896 203.42 336.424 202.486 337.024 201.59C337.062 201.533 337.084 201.466 337.194 201.444C337.089 202.919 336.933 204.381 337.033 205.85Z" fill="#FEFEFE"/>
<path fill-rule="evenodd" clip-rule="evenodd" d="M353.533 203.921C353.619 206.138 351.648 208.151 349.293 208.13C346.999 208.111 345.073 206.214 345.092 203.866C345.11 201.643 347.024 199.682 349.405 199.715C351.574 199.744 353.614 201.647 353.533 203.921Z" fill="#70A750"/>
<path d="M322.662 325.896C329.64 306.035 357.36 306.035 364.338 325.896L369.22 339.789C370.12 342.352 371.474 344.727 373.214 346.799L382.647 358.029C396.133 374.083 382.273 398.409 361.808 394.601L347.494 391.939C344.854 391.447 342.146 391.447 339.506 391.939L325.191 394.602C304.727 398.409 290.867 374.083 304.353 358.029L313.786 346.799C315.526 344.727 316.88 342.352 317.78 339.789L322.662 325.896Z" fill="white"/>
<path d="M177.662 421.896C184.64 402.035 212.36 402.035 219.338 421.896L224.22 435.789C225.12 438.352 226.474 440.727 228.214 442.799L237.647 454.029C251.133 470.083 237.273 494.409 216.808 490.601L202.494 487.939C199.854 487.447 197.146 487.447 194.506 487.939L180.191 490.602C159.727 494.409 145.867 470.083 159.353 454.029L168.786 442.799C170.526 440.727 171.88 438.352 172.78 435.789L177.662 421.896Z" fill="white"/>
<path d="M122.772 81.4946C122.772 81.4946 135.602 77.9909 133.18 65.9854C130.759 53.9799 127.616 52.125 130.398 47.0755C133.18 42.026 118.032 55.8349 114.064 66.0885C111.024 73.9719 113.807 80.1034 122.308 81.5977" fill="#296639"/>
<path d="M119.526 84.8952C119.526 84.8952 109.994 88.0898 105.923 77.6816C101.852 67.2735 102.883 64.4911 98.8124 61.8633C94.7419 59.2355 110.509 62.9453 117.722 69.0768C123.287 73.7657 124.369 79.7942 119.835 84.7922" fill="#479958"/>
<path d="M117.671 81.8554C117.671 86.4927 113.498 89.4297 108.397 89.4297C103.296 89.4297 99.1221 86.4927 99.1221 81.8554C99.1221 77.2181 103.296 74.7964 108.397 74.7964C113.498 74.7964 117.671 77.2181 117.671 81.8554Z" fill="#993829"/>
<path d="M109.221 75.5692C109.221 75.5692 108.139 73.6112 105.666 73.7658C105.666 73.7658 107.315 74.7448 107.469 76.0844C107.469 76.0844 105.666 75.0024 103.914 76.2905C103.914 76.2905 106.387 76.4451 106.799 76.7543C106.799 76.7543 105.048 79.3305 105.924 80.4641C105.924 80.4641 106.696 78.2485 107.778 77.5787C107.778 77.5787 110.046 78.4031 109.685 79.9488C109.685 79.9488 110.922 78.8668 109.736 77.2695C109.736 77.2695 110.818 76.5997 112.055 77.6302C112.055 77.6302 112.313 76.0329 109.891 76.0329C109.891 76.0329 111.437 74.7963 112.88 74.9509C112.828 75.0024 110.87 73.7658 109.221 75.5692Z" fill="#66AA5B"/>
<path d="M137.508 80.6702C138.487 82.0614 140.805 84.8438 144.103 84.4831C144.103 84.4831 141.114 83.298 140.599 81.34C140.599 81.34 144.721 82.0614 146.112 80.7217C146.112 80.7217 140.908 80.361 140.496 79.8973C140.496 79.8973 140.342 77.6817 142.403 76.5481C142.403 76.5481 139.208 76.1875 138.384 77.8363C138.384 77.8363 136.477 74.8993 138.59 72.8383C138.59 72.8383 136.271 75.157 136.271 75.8783C136.271 75.8783 134.622 71.1895 136.219 68.9739C136.219 68.9739 132.973 70.7773 134.571 74.5386C134.571 74.5386 136.889 78.7637 133.025 79.6912C130.294 80.361 127.924 80.7732 128.748 82.7827C129.573 84.7922 130.758 84.0709 131.685 82.6797C132.252 81.7522 134.416 80.8763 135.859 80.361C136.477 80.0519 137.198 80.258 137.508 80.6702Z" fill="#66AA5B"/>
<path d="M99.843 91.9543C98.9155 89.275 115.97 81.0824 124.833 78.0424C133.695 75.0024 133.747 77.7848 134.674 80.4641C135.602 83.1435 137.044 84.7408 128.131 87.7292C119.217 90.7177 100.719 94.6337 99.843 91.9543Z" fill="#DB793E"/>
<path fill-rule="evenodd" clip-rule="evenodd" d="M351.602 342.119C351.494 341.993 351.398 341.884 351.304 341.773C350.899 341.298 350.92 340.664 351.352 340.278C351.808 339.871 352.436 339.911 352.866 340.396C354.699 342.459 356.526 344.528 358.355 346.594C359.289 347.648 360.234 348.692 361.149 349.763C361.335 349.981 361.475 350.286 361.518 350.569C361.584 350.995 361.307 351.367 360.914 351.539C360.534 351.705 360.078 351.626 359.777 351.332C359.64 351.198 359.516 351.052 359.37 350.894C358.735 351.456 358.115 352.005 357.495 352.553C356.22 353.683 354.952 354.82 353.667 355.938C352.812 356.681 352.531 357.564 352.781 358.68C354.605 366.828 349.445 374.874 341.272 376.654C332.935 378.47 324.685 372.946 323.228 364.571C321.81 356.425 327.158 348.668 335.267 347.128C337.946 346.62 340.581 346.83 343.151 347.748C344.169 348.112 345.058 347.942 345.864 347.222C347.686 345.597 349.518 343.982 351.345 342.363C351.428 342.289 351.506 342.21 351.602 342.119ZM353.007 343.694C352.91 343.772 352.83 343.832 352.755 343.898C350.893 345.547 349.04 347.206 347.168 348.843C345.792 350.047 344.222 350.329 342.5 349.722C340.335 348.96 338.125 348.753 335.859 349.141C328.802 350.348 324.04 357.115 325.275 364.185C326.514 371.27 333.345 376.011 340.423 374.7C347.695 373.353 352.35 366.313 350.744 359.088C350.333 357.236 350.82 355.679 352.244 354.42C353.349 353.442 354.455 352.463 355.56 351.484C356.367 350.77 357.173 350.054 357.992 349.328C356.325 347.443 354.671 345.574 353.007 343.694Z" fill="black"/>
<path fill-rule="evenodd" clip-rule="evenodd" d="M360.629 354.222C361.025 354.904 361.417 355.551 361.781 356.215C362.519 357.561 363.134 358.962 363.531 360.449C363.837 361.596 363.989 362.757 363.753 363.945C363.38 365.823 361.644 367.032 359.853 366.575C358.517 366.235 357.763 365.28 357.457 363.964C357.129 362.552 357.423 361.189 357.843 359.849C358.457 357.888 359.408 356.085 360.507 354.357C360.53 354.322 360.563 354.294 360.629 354.222Z" fill="#9B2C9B"/>
<path fill-rule="evenodd" clip-rule="evenodd" d="M347.687 356.471C347.965 356.5 348.768 356.615 348.967 356.703C349.827 357.033 349.863 358.676 349.863 358.676C349.863 358.676 349.976 359.561 349.967 360.003C349.952 360.785 349.927 361.572 349.83 362.347C349.696 363.413 349.576 364.493 349.298 365.526C348.68 367.814 347.385 369.685 345.567 371.21C343.944 372.571 342.102 373.453 340.023 373.794C336.997 374.289 334.165 373.715 331.607 372.012C328.943 370.239 327.253 367.757 326.613 364.623C325.944 361.351 326.612 358.323 328.459 355.536C328.991 354.733 329.736 354.718 330.527 354.795C331.422 354.883 332.191 355.305 332.9 355.834C333.47 356.259 334.104 356.506 334.804 356.595C335.225 356.649 335.578 356.478 335.918 356.258C337.472 355.254 339.383 355.303 340.868 356.39C341.05 356.523 341.21 356.686 341.383 356.831C342.168 357.488 343.212 357.609 344.074 357.052C345.226 356.307 346.461 356.305 347.687 356.471Z" fill="#9B2C9B"/>
<path d="M293.817 84.2312H285.736C285.736 84.2312 286.268 74.5468 280.419 66.3523L279.037 60.8184L300.728 64.4367C300.728 64.4367 294.03 70.7156 293.817 84.2312Z" fill="#56B347"/>
<path d="M275.67 52.9433C275.67 52.9433 274.075 45.9194 281.518 43.4717C286.796 42.5139 289.88 46.9836 289.88 46.9836C289.88 46.9836 294.916 41.024 300.977 44.7488C305.974 48.1543 304.06 52.9433 304.06 52.9433C304.06 52.9433 313.91 56.6545 308.101 65.2882C303.383 71.3543 296.511 66.1396 296.511 66.1396C296.511 66.1396 290.663 74.8662 283.007 66.4589C283.007 66.4589 276.946 71.3543 271.736 64.7561C267.762 59.0093 272.91 54.694 275.67 52.9433Z" fill="#9BCD67"/>
<path fill-rule="evenodd" clip-rule="evenodd" d="M87.4704 211.975C87.4784 212.104 87.4797 212.189 87.4797 212.274C87.4784 213.517 86.9928 214.683 86.1149 215.559C85.3623 216.309 84.397 216.77 83.3539 216.886C83.8022 217.646 84.0392 218.54 83.9893 219.486C83.7558 222.015 81.6219 223.953 79.1269 223.885H77.5576C77.9548 224.569 78.1814 225.362 78.1814 226.208C78.1826 228.768 76.0987 230.852 73.5363 230.852H54.2688L47.6426 237.478L46 235.835L52.6279 229.207V212.464C52.5861 209.99 54.4969 207.856 56.9815 207.625C57.1104 207.618 57.1953 207.616 57.2788 207.616C58.1058 207.617 58.9003 207.833 59.5973 208.236V206.656C59.5555 204.182 61.4662 202.048 63.9497 201.817C64.0786 201.81 64.1646 201.808 64.2482 201.808C65.0926 201.809 65.8837 202.037 66.5667 202.433V200.652C66.5667 200.569 66.5679 200.484 66.5725 200.399C66.7107 197.841 68.8886 195.867 71.4615 196.007C73.4153 196.188 75.0008 197.503 75.6002 199.242L77.0289 197.792C77.1718 197.649 77.3146 197.521 77.4622 197.399C80.0583 195.262 83.9102 195.632 86.0474 198.229C88.0431 200.752 87.8143 204.325 85.5341 206.559L84.2192 207.874C85.9674 208.467 87.2915 210.049 87.4704 211.975ZM54.9509 226.885V212.444C54.9288 211.158 55.9162 210.059 57.1509 209.942L57.2775 209.939C58.5564 209.94 59.5959 210.981 59.5971 212.258V212.267C59.5971 212.908 60.1164 213.428 60.7575 213.428H60.7588C61.3999 213.428 61.9191 212.909 61.9204 212.268V212.267V206.636C61.8983 205.351 62.8857 204.251 64.1204 204.134L64.2459 204.131C65.5259 204.133 66.5656 205.174 66.5668 206.453V206.46C66.5668 207.101 67.086 207.621 67.7272 207.621H67.7284C68.3696 207.621 68.8888 207.102 68.89 206.461V206.46V200.652L68.8935 200.523C68.9609 199.244 70.0319 198.259 71.2911 198.323C72.5734 198.443 73.5596 199.543 73.5352 200.851V201.815C73.5352 202.285 73.8199 202.71 74.2566 202.889C74.6899 203.068 75.194 202.966 75.5238 202.629L78.6751 199.431C78.761 199.346 78.8494 199.266 78.9411 199.191C80.5487 197.869 82.9311 198.099 84.2414 199.688C85.4819 201.258 85.339 203.498 83.901 204.907L80.8461 207.962C80.514 208.294 80.414 208.793 80.594 209.228C80.7729 209.661 81.198 209.945 81.6673 209.945H82.6313H82.6929C83.9613 209.945 85.0392 210.923 85.153 212.145L85.1566 212.273C85.1552 212.893 84.9137 213.476 84.4746 213.914C84.0355 214.35 83.4536 214.591 82.8321 214.591H82.8286H79.3439C78.7015 214.591 78.1823 215.111 78.1823 215.753C78.1823 216.394 78.7015 216.914 79.3439 216.914L79.4717 216.918C80.7518 216.986 81.7368 218.083 81.6718 219.316C81.5533 220.596 80.4673 221.587 79.1465 221.56H73.5362C72.8938 221.56 72.3745 222.081 72.3745 222.722C72.3745 223.363 72.8938 223.884 73.5362 223.884C74.8174 223.884 75.8594 224.926 75.8594 226.207C75.8594 227.488 74.8174 228.53 73.5362 228.53H56.5905L58.9197 226.201H66.5638V223.878H61.2429L65.8894 219.231H72.372V216.908H68.2125L72.8472 212.273H78.1802V209.95H75.1702L80.1661 204.955L78.5235 203.312L73.5334 208.302V205.304H71.2102V210.625L66.5644 215.271V211.112H64.2411V217.594L59.5946 222.241V216.908H57.2714V224.564L54.9509 226.885Z" fill="#97BE0D"/>
<rect x="184" y="444" width="30" height="36" fill="#00AA01"/>
<path d="M190.371 441H188.661L185.801 436.67V441H184.091V433.98H185.801L188.661 438.33V433.98H190.371V441ZM194.93 441.07C194.27 441.07 193.664 440.917 193.11 440.61C192.564 440.303 192.127 439.877 191.8 439.33C191.48 438.777 191.32 438.157 191.32 437.47C191.32 436.783 191.48 436.167 191.8 435.62C192.127 435.073 192.564 434.647 193.11 434.34C193.664 434.033 194.27 433.88 194.93 433.88C195.59 433.88 196.194 434.033 196.74 434.34C197.294 434.647 197.727 435.073 198.04 435.62C198.36 436.167 198.52 436.783 198.52 437.47C198.52 438.157 198.36 438.777 198.04 439.33C197.72 439.877 197.287 440.303 196.74 440.61C196.194 440.917 195.59 441.07 194.93 441.07ZM194.93 439.51C195.49 439.51 195.937 439.323 196.27 438.95C196.61 438.577 196.78 438.083 196.78 437.47C196.78 436.85 196.61 436.357 196.27 435.99C195.937 435.617 195.49 435.43 194.93 435.43C194.364 435.43 193.91 435.613 193.57 435.98C193.237 436.347 193.07 436.843 193.07 437.47C193.07 438.09 193.237 438.587 193.57 438.96C193.91 439.327 194.364 439.51 194.93 439.51ZM206.062 433.98L203.572 441H201.432L198.942 433.98H200.762L202.502 439.28L204.252 433.98H206.062ZM211.146 439.76H208.526L208.106 441H206.316L208.856 433.98H210.836L213.376 441H211.566L211.146 439.76ZM210.706 438.44L209.836 435.87L208.976 438.44H210.706Z" fill="#818181"/>
<path d="M201.035 469H198.017V457.624C196.914 458.655 195.614 459.418 194.117 459.912V457.173C194.905 456.915 195.761 456.428 196.685 455.712C197.608 454.989 198.242 454.147 198.586 453.188H201.035V469Z" fill="white"/>
<line opacity="0.4" x1="198.5" y1="370.986" x2="199.5" y2="406.986" stroke="white"/>
<line opacity="0.4" x1="243.097" y1="333.509" x2="314.097" y2="347.509" stroke="white"/>
<line opacity="0.4" x1="156.341" y1="291.366" x2="113.341" y2="331.366" stroke="white"/>
<line opacity="0.4" x1="246.861" y1="253.52" x2="322.861" y2="231.52" stroke="white"/>
<line opacity="0.4" x1="176.09" y1="217.492" x2="94.09" y2="232.492" stroke="white"/>
<line opacity="0.4" x1="249.549" y1="177.785" x2="290.549" y2="91.7848" stroke="white"/>
<line opacity="0.4" x1="180.579" y1="138.27" x2="148.579" y2="88.2695" stroke="white"/>
</g>
</svg>
