<svg width="824" height="224" viewBox="0 0 824 224" fill="none" xmlns="http://www.w3.org/2000/svg">
<g opacity="0.9">
<path d="M0 0C0 0 44.5 38.1418 69.1141 62.756C115.87 109.512 136.321 112.13 238.426 64.039C340.531 15.948 376 0 376 0H0Z" fill="#8EE282"/>
<path d="M169 0L260.761 105.186C260.761 105.186 313.117 159.764 393.38 110.375C473.643 60.986 564.152 0 564.152 0H169Z" fill="#F2D934"/>
<path d="M325 0L462.895 143.709C462.895 143.709 519.931 216.763 633.626 149.612C747.322 82.4612 824 52.5741 824 52.5741V0.181534L325 0Z" fill="#FFAD35"/>
<path d="M503 0L688.437 196.291C688.437 196.291 738.047 249.191 823.782 208.791V0H503Z" fill="#FD2343"/>
</g>
</svg>
