<svg xmlns="http://www.w3.org/2000/svg" width="592.846" height="430.096" viewBox="0 0 592.846 430.096">
  <g id="Group_8" data-name="Group 8" transform="matrix(0.999, -0.035, 0.035, 0.999, 19.972, 325.723)">
    <path id="Path_30" data-name="Path 30" d="M269.608,41.171,67.873,0A41.17,41.17,0,0,0,26.7,41.171L2,185.267a41.17,41.17,0,0,0,41.17,41.171H253.14a41.17,41.17,0,0,0,41.17-41.171L310.778,82.341A41.17,41.17,0,0,0,269.608,41.171Z" transform="translate(-17.451 -114.452) rotate(-41)" fill="#8fd96e" opacity="0.8"/>
    <path id="Path_27" data-name="Path 27" d="M269.608,41.171,67.873,0A41.17,41.17,0,0,0,26.7,41.171L2,185.267a41.17,41.17,0,0,0,41.17,41.171H253.14a41.17,41.17,0,0,0,41.17-41.171L310.778,82.341A41.17,41.17,0,0,0,269.608,41.171Z" transform="translate(53.071 -94.068) rotate(-41)" fill="#ffce00" opacity="0.8"/>
    <path id="Path_28" data-name="Path 28" d="M269.608,41.171,67.873,0A41.17,41.17,0,0,0,26.7,41.171L2,185.267a41.17,41.17,0,0,0,41.17,41.171H253.14a41.17,41.17,0,0,0,41.17-41.171L310.778,82.341A41.17,41.17,0,0,0,269.608,41.171Z" transform="translate(122.604 -73.546) rotate(-41)" fill="#fc902c" opacity="0.8"/>
    <path id="Path_29" data-name="Path 29" d="M269.608,41.171,67.873,0A41.17,41.17,0,0,0,26.7,41.171L2,185.267a41.17,41.17,0,0,0,41.17,41.171H253.14a41.17,41.17,0,0,0,41.17-41.171L310.778,82.341A41.17,41.17,0,0,0,269.608,41.171Z" transform="translate(193.128 -53.162) rotate(-41)" fill="#eb1549" opacity="0.8"/>
  </g>
</svg>
