<svg width="1679" height="1524" viewBox="0 0 1679 1524" fill="none" xmlns="http://www.w3.org/2000/svg">
<rect width="1679" height="1524" />
<path fill-rule="evenodd" clip-rule="evenodd" d="M1105.26 244.832C1101.85 240.87 1098.85 237.417 1095.88 233.937C1083.1 218.956 1083.74 198.944 1097.38 186.768C1111.75 173.938 1131.57 175.198 1145.14 190.483C1202.96 255.573 1260.59 320.825 1318.3 386.002C1347.75 419.263 1377.57 452.206 1406.42 485.975C1412.31 492.86 1416.71 502.481 1418.08 511.412C1420.15 524.859 1411.42 536.588 1399.01 542.013C1387.04 547.248 1372.65 544.738 1363.16 535.472C1358.84 531.252 1354.91 526.632 1350.3 521.648C1330.27 539.382 1310.72 556.693 1291.17 574.005C1250.94 609.626 1210.95 645.518 1170.41 680.772C1143.44 704.218 1134.56 732.053 1142.45 767.281C1199.99 1024.32 1037.23 1278.12 779.412 1334.27C516.398 1391.56 256.147 1217.29 210.179 953.11C165.466 696.14 334.153 451.438 589.975 402.865C674.476 386.821 757.598 393.472 838.667 422.416C870.787 433.885 898.822 428.529 924.266 405.829C981.74 354.555 1039.52 303.629 1097.16 252.543C1099.78 250.222 1102.23 247.72 1105.26 244.832ZM1149.59 294.52C1146.53 296.993 1143.99 298.882 1141.63 300.972C1082.9 352.992 1024.44 405.317 965.394 456.97C921.997 494.932 872.458 503.824 818.127 484.698C749.827 460.651 680.131 454.114 608.633 466.348C386.028 504.432 235.792 717.894 274.781 940.944C313.844 1164.43 529.327 1314 752.631 1272.63C982.007 1230.13 1128.87 1008.06 1078.21 780.145C1065.22 721.707 1080.59 672.611 1125.51 632.884C1160.39 602.029 1195.26 571.164 1230.12 540.283C1255.57 517.742 1280.99 495.168 1306.84 472.242C1254.24 412.795 1202.08 353.848 1149.59 294.52Z" fill="black"/>
<path fill-rule="evenodd" clip-rule="evenodd" d="M1390.02 626.642C1402.5 648.16 1414.88 668.58 1426.35 689.504C1449.64 731.976 1469.04 776.175 1481.57 823.073C1491.23 859.266 1496.01 895.887 1488.57 933.365C1476.81 992.594 1422.05 1030.73 1365.54 1016.33C1323.4 1005.6 1299.62 975.488 1289.96 933.948C1279.61 889.426 1288.89 846.419 1302.13 804.154C1321.52 742.289 1351.5 685.413 1386.18 630.892C1386.88 629.787 1387.95 628.913 1390.02 626.642Z" fill="#9B2C9B"/>
<path fill-rule="evenodd" clip-rule="evenodd" d="M981.779 697.594C990.554 698.504 1015.87 702.128 1022.16 704.888C1049.28 715.309 1050.41 767.128 1050.41 767.128C1050.41 767.128 1053.98 795.07 1053.7 809.002C1053.21 833.683 1052.44 858.5 1049.36 882.956C1045.13 916.577 1041.36 950.647 1032.57 983.222C1013.1 1055.42 972.244 1114.43 914.88 1162.54C863.704 1205.45 805.587 1233.3 740.009 1244.04C644.561 1259.67 555.221 1241.56 474.517 1187.84C390.494 1131.9 337.159 1053.62 316.966 954.747C295.885 851.534 316.943 756.012 375.204 668.083C391.991 642.752 415.502 642.29 440.447 644.723C468.686 647.474 492.949 660.809 515.314 677.479C533.297 690.881 553.29 698.697 575.381 701.508C588.655 703.197 599.769 697.811 610.51 690.868C659.533 659.179 719.82 660.749 766.661 695.017C772.404 699.218 777.442 704.373 782.915 708.953C807.662 729.664 840.597 733.492 867.787 715.913C904.137 692.402 943.108 692.356 981.779 697.594Z" fill="#9B2C9B"/>
</svg>
