<svg width="98" height="99" viewBox="0 0 98 99" fill="none" xmlns="http://www.w3.org/2000/svg">
<path d="M48.7909 98.3698C75.7315 98.3698 97.5711 76.506 97.5711 49.5357C97.5711 22.5654 75.7315 0.70166 48.7909 0.70166C21.8504 0.70166 0.0107422 22.5654 0.0107422 49.5357C0.0107422 76.506 21.8504 98.3698 48.7909 98.3698Z" fill="#70A750"/>
<path fill-rule="evenodd" clip-rule="evenodd" d="M25.8772 29.0013C26.0062 28.11 26.1189 27.2157 26.2662 26.3276C26.6301 24.1359 27.353 22.054 28.4521 20.1361C28.9607 19.2486 29.9228 18.735 30.79 18.2026C33.5513 16.5071 36.5928 15.612 39.7676 15.0969C42.3056 14.685 44.8572 14.4969 47.4236 14.5901C51.5723 14.7406 55.6467 15.3698 59.6252 16.5798C63.634 17.799 67.3996 19.5229 70.8585 21.9093C76.5267 25.82 80.5041 30.9857 82.474 37.6199C83.1843 40.0115 83.5362 42.4727 83.6307 44.9774C83.8197 49.9741 82.9693 54.806 81.5311 59.5669C80.6004 62.6487 79.4178 65.6265 78.0503 68.5345C77.5336 69.6338 77.0049 70.7275 76.4678 71.8166C76.4389 71.8749 76.4594 72.0675 76.2989 71.994C76.2611 71.9769 76.2827 71.8302 76.2767 71.7435C76.4789 68.0919 75.8808 64.6536 73.5929 61.6674C71.6901 59.1843 69.1669 57.5812 66.2907 56.4548C63.6964 55.4387 60.9654 55.0182 58.253 54.501C52.2386 53.3538 46.3576 51.7586 40.7891 49.1557C37.4203 47.581 34.2517 45.6746 31.5764 43.0627C28.4562 40.0164 26.4165 36.3712 25.8518 31.9905C25.7241 31.0011 25.7826 29.9972 25.8772 29.0013Z" fill="#FEFEFE"/>
<path fill-rule="evenodd" clip-rule="evenodd" d="M20.4004 38.3921C20.5838 42.0931 21.7069 45.4597 23.9233 48.4511C25.4996 50.5781 27.2792 52.5236 29.1839 54.3526C30.5583 55.6718 32.0336 56.8863 33.3922 58.2205C35.0992 59.8975 36.5875 61.7526 37.7787 63.8496C39.1443 66.2538 40.0453 68.8179 40.5048 71.5252C40.961 74.2149 40.9811 76.9218 40.4888 79.6229C40.2071 81.1672 39.8677 82.6871 39.1326 84.0914C39.0849 84.1829 39.104 84.3085 39.092 84.4182C38.5796 85.0795 38.058 84.9162 37.3771 84.5956C34.1427 83.0727 31.0193 81.3636 28.0532 79.3627C25.1399 77.3978 22.4567 75.158 20.1022 72.5531C16.5114 68.5791 13.9634 64.0213 12.7931 58.7604C12.0557 55.4439 11.8686 52.0717 12.2574 48.6986C12.8209 43.809 14.2072 39.1498 16.3314 34.6997C17.5125 32.2249 18.8525 29.8535 20.3752 27.5792C20.472 27.4349 20.5279 27.2648 20.808 27.2092C20.5418 30.9525 20.1466 34.6625 20.4004 38.3921Z" fill="#FEFEFE"/>
<path fill-rule="evenodd" clip-rule="evenodd" d="M62.2772 33.4944C62.4951 39.121 57.4926 44.2306 51.5159 44.1791C45.6921 44.1288 40.8044 39.3153 40.8529 33.3566C40.899 27.7133 45.7565 22.7376 51.8003 22.8199C57.3035 22.8947 62.4808 27.7246 62.2772 33.4944Z" fill="#70A750"/>
</svg>
