<svg width="116" height="117" viewBox="0 0 116 117" fill="none" xmlns="http://www.w3.org/2000/svg">
<mask id="path-1-outside-1" maskUnits="userSpaceOnUse" x="0" y="0" width="116" height="117" fill="black">
<rect fill="white" width="116" height="117"/>
<path d="M98.3886 99.0313C108.649 88.6279 115 74.2992 115 58.5C115 26.7949 89.4304 1 58 1C42.3382 1 28.134 7.40714 17.8221 17.7561C17.7804 17.7869 17.7326 17.8033 17.6959 17.8413C17.6593 17.8793 17.642 17.9276 17.6114 17.9687C7.35143 28.3721 1 42.7008 1 58.5C1 90.2051 26.5696 116 58 116C73.6618 116 87.866 109.593 98.1779 99.2439C98.2196 99.2131 98.2674 99.1967 98.3041 99.1587C98.3407 99.1207 98.358 99.0724 98.3886 99.0313ZM112.964 58.5C112.964 73.4182 107.083 86.9687 97.5499 96.9449L73.8674 73.0547C74.7183 71.151 75.1285 69.426 75.2863 68.6128L77.4614 67.2523C77.9398 66.9535 78.0864 66.321 77.7902 65.8384C77.495 65.3569 76.868 65.208 76.3896 65.5068L74.2033 66.8734C73.1427 66.6137 70.3598 66.0623 67.3144 66.4442L65.5515 64.6658C66.6569 64.441 67.7043 64.0631 68.6753 63.4881C73.446 60.6645 74.9483 54.5397 75.2883 52.7839L77.4614 51.4244C77.9388 51.1256 78.0854 50.4921 77.7892 50.0105C77.492 49.529 76.867 49.3801 76.3876 49.6789L74.188 51.0548C72.4638 50.6338 66.322 49.455 61.7864 52.6483C60.6953 53.4164 59.7853 54.3754 59.0565 55.5192V48.3964C60.564 48.8492 61.9961 49.0823 63.3458 49.0823C65.3001 49.0823 67.0844 48.6079 68.6814 47.6582C73.4226 44.8396 74.9321 38.758 75.2771 36.9888L77.4604 35.6242C77.9388 35.3254 78.0854 34.6929 77.7892 34.2104C77.494 33.7288 76.867 33.5799 76.3886 33.8787L74.1911 35.2525C72.4973 34.8367 66.4462 33.6631 61.9249 36.7373C60.7645 37.5258 59.8148 38.5383 59.0565 39.7386V36.2157C62.503 33.6251 64.3636 30.6022 64.5499 27.2159C64.8593 21.623 60.5212 16.9244 59.2408 15.6646V9.50179C59.2408 8.935 58.7858 8.475 58.2229 8.475C57.66 8.475 57.2051 8.935 57.2051 9.50179V15.6522C55.9185 16.8638 51.674 21.2842 51.789 26.8C51.8603 30.249 53.6324 33.4023 57.0208 36.1869V39.8638C56.5424 39.0886 55.9908 38.3894 55.3475 37.7897C55.3088 37.7374 55.265 37.6881 55.2162 37.6439C50.6429 33.4485 43.6472 34.8008 41.8069 35.2525L39.6083 33.8777C39.1299 33.5789 38.5019 33.7278 38.2078 34.2093C37.9116 34.6919 38.0592 35.3244 38.5365 35.6232L40.7188 36.9878C40.8583 37.7025 41.1911 39.1266 41.8507 40.7592L19.8894 18.6032C29.7789 8.98634 43.2116 3.05357 58 3.05357C88.3067 3.05357 112.964 27.9264 112.964 58.5ZM58.2107 17.5384C59.6123 19.0221 62.7544 22.8428 62.5193 27.1009C62.3707 29.7787 60.8632 32.2266 58.0692 34.3952C55.3241 32.0633 53.8858 29.5015 53.8268 26.7662C53.7342 22.5769 56.8173 18.9575 58.2107 17.5384ZM59.1817 61.144L60.4968 62.4706C60.0306 62.3587 59.5532 62.22 59.0657 62.0547C59.0993 61.7457 59.1349 61.4387 59.1817 61.144ZM59.7446 58.808C60.4082 56.8705 61.477 55.3734 62.9448 54.3374C66.3851 51.9091 71.1935 52.5364 73.1701 52.9369C72.7101 54.9124 71.2769 59.5689 67.6462 61.7179C66.4808 62.408 65.1678 62.7694 63.7275 62.8248L59.7446 58.808ZM42.84 37.1295C44.947 36.7024 50.2714 36.0175 53.722 39.0486C53.7616 39.102 53.8074 39.1523 53.8583 39.1975C55.5714 40.7304 56.5954 43.1044 56.9251 46.2412C53.5255 47.3892 50.6185 47.269 48.2876 45.8582C44.7251 43.702 43.3011 39.0927 42.84 37.1295ZM52.6328 49.0823C54.007 49.0823 55.4757 48.8328 57.0229 48.3615V55.6558C56.2819 54.4545 55.3505 53.4451 54.2176 52.6473C53.7749 52.3352 53.3128 52.0785 52.8446 51.8454L49.7126 48.686C50.6368 48.9468 51.6089 49.0823 52.6328 49.0823ZM55.8483 57.7812C56.405 58.9959 56.7633 60.4293 56.9374 62.0558C53.5693 63.1924 50.6847 63.0918 48.367 61.7221C44.7424 59.5822 43.3001 54.9124 42.836 52.9338C44.5541 52.5837 48.4047 52.0723 51.6537 53.5488L55.8483 57.7812ZM62.8827 64.8774L64.9316 66.9443C63.8486 67.278 62.7788 67.7647 61.7874 68.4629C60.6963 69.2309 59.7863 70.19 59.0576 71.3338V64.2182C60.396 64.6217 61.6694 64.8322 62.8827 64.8774ZM62.9448 70.153C64.0685 69.3593 65.3398 68.8952 66.6111 68.6395L71.3858 73.4562C70.5247 75.0097 69.3216 76.5396 67.6452 77.5325C65.3255 78.9053 62.4368 79.008 59.0657 77.8703C59.4484 74.3094 60.7431 71.7065 62.9448 70.153ZM69.227 68.3736C70.8606 68.353 72.2907 68.5738 73.1701 68.7514C73.0134 69.423 72.7437 70.3974 72.3131 71.4868L69.227 68.3736ZM59.0769 46.2402C59.4535 42.6136 60.79 39.9891 63.0567 38.4448C66.4798 36.1109 71.2036 36.7332 73.159 37.1305C72.6928 39.105 71.2505 43.7533 67.6401 45.8931C65.3255 47.267 62.4419 47.3717 59.0769 46.2402ZM3.03571 58.5C3.03571 43.5818 8.91689 30.0313 18.4501 20.0551L48.767 50.6379C45.7002 50.2375 42.8889 50.7929 41.812 51.0558L39.6114 49.6799C39.133 49.3811 38.506 49.53 38.2098 50.0116C37.9136 50.4931 38.0612 51.1267 38.5376 51.4254L40.7158 52.788C41.0578 54.5469 42.5601 60.6675 47.3288 63.4892C48.9207 64.4328 50.6999 64.9041 52.6481 64.9041C54.0222 64.9041 55.4839 64.6628 57.0229 64.1935V71.4724C56.2819 70.2711 55.3505 69.2617 54.2176 68.4639C49.6699 65.2614 43.5006 66.4576 41.7978 66.8745L39.6104 65.5068C39.132 65.208 38.504 65.3569 38.2098 65.8384C37.9136 66.321 38.0612 66.9535 38.5386 67.2523L40.7188 68.6149C41.0649 70.3892 42.5713 76.4872 47.3278 79.3037C48.9207 80.2463 50.6999 80.7186 52.6481 80.7186C54.0222 80.7186 55.4839 80.4773 57.0229 80.0081V87.287C56.2819 86.0856 55.3505 85.0763 54.2176 84.2795C49.6821 81.0862 43.5373 82.266 41.814 82.687L39.6114 81.309C39.133 81.0092 38.506 81.1591 38.2098 81.6407C37.9136 82.1222 38.0612 82.7558 38.5376 83.0546L40.7158 84.4161C41.0568 86.1729 42.5591 92.2956 47.3278 95.1193C48.9207 96.0619 50.6989 96.5332 52.6471 96.5332C54.0222 96.5332 55.4839 96.2919 57.0229 95.8226V107.498C57.0229 108.065 57.4778 108.525 58.0407 108.525C58.6036 108.525 59.0586 108.065 59.0586 107.498V95.8483C60.5701 96.3032 62.0053 96.5332 63.358 96.5332C65.3062 96.5332 67.0844 96.0619 68.6783 95.1183C73.449 92.2936 74.9514 86.1667 75.2914 84.413L77.4645 83.0535C77.9419 82.7547 78.0884 82.1212 77.7922 81.6396C77.495 81.1581 76.8701 81.0082 76.3906 81.308L74.189 82.6849C72.4617 82.2639 66.32 81.0862 61.7885 84.2785C60.6973 85.0465 59.7874 86.0055 59.0586 87.1494V80.0338C60.5701 80.4886 62.0053 80.7186 63.358 80.7186C65.3062 80.7186 67.0844 80.2473 68.6783 79.3037C70.5339 78.205 71.8866 76.6043 72.877 74.9573L96.1126 98.3968C86.2211 108.014 72.7885 113.946 58 113.946C27.6933 113.946 3.03571 89.0736 3.03571 58.5ZM56.9374 77.8713C53.5703 79.007 50.6857 78.9063 48.367 77.5376C44.7424 75.3978 43.3001 70.728 42.836 68.7494C44.8086 68.3469 49.6017 67.7175 53.0512 70.1468C55.2579 71.7014 56.5546 74.3053 56.9374 77.8713ZM56.9374 93.6859C53.5693 94.8215 50.6847 94.7219 48.367 93.3522C44.7444 91.2134 43.3011 86.5467 42.837 84.567C44.8147 84.1676 49.621 83.5402 53.0603 85.9675C55.2609 87.5221 56.5546 90.125 56.9374 93.6859ZM59.0657 93.6859C59.4474 90.125 60.7431 87.5221 62.9437 85.9675C66.3871 83.5371 71.1945 84.1655 73.1701 84.566C72.7101 86.5405 71.2769 91.197 67.6462 93.3471C65.3255 94.7209 62.4358 94.8225 59.0657 93.6859Z"/>
</mask>
<path d="M98.3886 99.0313C108.649 88.6279 115 74.2992 115 58.5C115 26.7949 89.4304 1 58 1C42.3382 1 28.134 7.40714 17.8221 17.7561C17.7804 17.7869 17.7326 17.8033 17.6959 17.8413C17.6593 17.8793 17.642 17.9276 17.6114 17.9687C7.35143 28.3721 1 42.7008 1 58.5C1 90.2051 26.5696 116 58 116C73.6618 116 87.866 109.593 98.1779 99.2439C98.2196 99.2131 98.2674 99.1967 98.3041 99.1587C98.3407 99.1207 98.358 99.0724 98.3886 99.0313ZM112.964 58.5C112.964 73.4182 107.083 86.9687 97.5499 96.9449L73.8674 73.0547C74.7183 71.151 75.1285 69.426 75.2863 68.6128L77.4614 67.2523C77.9398 66.9535 78.0864 66.321 77.7902 65.8384C77.495 65.3569 76.868 65.208 76.3896 65.5068L74.2033 66.8734C73.1427 66.6137 70.3598 66.0623 67.3144 66.4442L65.5515 64.6658C66.6569 64.441 67.7043 64.0631 68.6753 63.4881C73.446 60.6645 74.9483 54.5397 75.2883 52.7839L77.4614 51.4244C77.9388 51.1256 78.0854 50.4921 77.7892 50.0105C77.492 49.529 76.867 49.3801 76.3876 49.6789L74.188 51.0548C72.4638 50.6338 66.322 49.455 61.7864 52.6483C60.6953 53.4164 59.7853 54.3754 59.0565 55.5192V48.3964C60.564 48.8492 61.9961 49.0823 63.3458 49.0823C65.3001 49.0823 67.0844 48.6079 68.6814 47.6582C73.4226 44.8396 74.9321 38.758 75.2771 36.9888L77.4604 35.6242C77.9388 35.3254 78.0854 34.6929 77.7892 34.2104C77.494 33.7288 76.867 33.5799 76.3886 33.8787L74.1911 35.2525C72.4973 34.8367 66.4462 33.6631 61.9249 36.7373C60.7645 37.5258 59.8148 38.5383 59.0565 39.7386V36.2157C62.503 33.6251 64.3636 30.6022 64.5499 27.2159C64.8593 21.623 60.5212 16.9244 59.2408 15.6646V9.50179C59.2408 8.935 58.7858 8.475 58.2229 8.475C57.66 8.475 57.2051 8.935 57.2051 9.50179V15.6522C55.9185 16.8638 51.674 21.2842 51.789 26.8C51.8603 30.249 53.6324 33.4023 57.0208 36.1869V39.8638C56.5424 39.0886 55.9908 38.3894 55.3475 37.7897C55.3088 37.7374 55.265 37.6881 55.2162 37.6439C50.6429 33.4485 43.6472 34.8008 41.8069 35.2525L39.6083 33.8777C39.1299 33.5789 38.5019 33.7278 38.2078 34.2093C37.9116 34.6919 38.0592 35.3244 38.5365 35.6232L40.7188 36.9878C40.8583 37.7025 41.1911 39.1266 41.8507 40.7592L19.8894 18.6032C29.7789 8.98634 43.2116 3.05357 58 3.05357C88.3067 3.05357 112.964 27.9264 112.964 58.5ZM58.2107 17.5384C59.6123 19.0221 62.7544 22.8428 62.5193 27.1009C62.3707 29.7787 60.8632 32.2266 58.0692 34.3952C55.3241 32.0633 53.8858 29.5015 53.8268 26.7662C53.7342 22.5769 56.8173 18.9575 58.2107 17.5384ZM59.1817 61.144L60.4968 62.4706C60.0306 62.3587 59.5532 62.22 59.0657 62.0547C59.0993 61.7457 59.1349 61.4387 59.1817 61.144ZM59.7446 58.808C60.4082 56.8705 61.477 55.3734 62.9448 54.3374C66.3851 51.9091 71.1935 52.5364 73.1701 52.9369C72.7101 54.9124 71.2769 59.5689 67.6462 61.7179C66.4808 62.408 65.1678 62.7694 63.7275 62.8248L59.7446 58.808ZM42.84 37.1295C44.947 36.7024 50.2714 36.0175 53.722 39.0486C53.7616 39.102 53.8074 39.1523 53.8583 39.1975C55.5714 40.7304 56.5954 43.1044 56.9251 46.2412C53.5255 47.3892 50.6185 47.269 48.2876 45.8582C44.7251 43.702 43.3011 39.0927 42.84 37.1295ZM52.6328 49.0823C54.007 49.0823 55.4757 48.8328 57.0229 48.3615V55.6558C56.2819 54.4545 55.3505 53.4451 54.2176 52.6473C53.7749 52.3352 53.3128 52.0785 52.8446 51.8454L49.7126 48.686C50.6368 48.9468 51.6089 49.0823 52.6328 49.0823ZM55.8483 57.7812C56.405 58.9959 56.7633 60.4293 56.9374 62.0558C53.5693 63.1924 50.6847 63.0918 48.367 61.7221C44.7424 59.5822 43.3001 54.9124 42.836 52.9338C44.5541 52.5837 48.4047 52.0723 51.6537 53.5488L55.8483 57.7812ZM62.8827 64.8774L64.9316 66.9443C63.8486 67.278 62.7788 67.7647 61.7874 68.4629C60.6963 69.2309 59.7863 70.19 59.0576 71.3338V64.2182C60.396 64.6217 61.6694 64.8322 62.8827 64.8774ZM62.9448 70.153C64.0685 69.3593 65.3398 68.8952 66.6111 68.6395L71.3858 73.4562C70.5247 75.0097 69.3216 76.5396 67.6452 77.5325C65.3255 78.9053 62.4368 79.008 59.0657 77.8703C59.4484 74.3094 60.7431 71.7065 62.9448 70.153ZM69.227 68.3736C70.8606 68.353 72.2907 68.5738 73.1701 68.7514C73.0134 69.423 72.7437 70.3974 72.3131 71.4868L69.227 68.3736ZM59.0769 46.2402C59.4535 42.6136 60.79 39.9891 63.0567 38.4448C66.4798 36.1109 71.2036 36.7332 73.159 37.1305C72.6928 39.105 71.2505 43.7533 67.6401 45.8931C65.3255 47.267 62.4419 47.3717 59.0769 46.2402ZM3.03571 58.5C3.03571 43.5818 8.91689 30.0313 18.4501 20.0551L48.767 50.6379C45.7002 50.2375 42.8889 50.7929 41.812 51.0558L39.6114 49.6799C39.133 49.3811 38.506 49.53 38.2098 50.0116C37.9136 50.4931 38.0612 51.1267 38.5376 51.4254L40.7158 52.788C41.0578 54.5469 42.5601 60.6675 47.3288 63.4892C48.9207 64.4328 50.6999 64.9041 52.6481 64.9041C54.0222 64.9041 55.4839 64.6628 57.0229 64.1935V71.4724C56.2819 70.2711 55.3505 69.2617 54.2176 68.4639C49.6699 65.2614 43.5006 66.4576 41.7978 66.8745L39.6104 65.5068C39.132 65.208 38.504 65.3569 38.2098 65.8384C37.9136 66.321 38.0612 66.9535 38.5386 67.2523L40.7188 68.6149C41.0649 70.3892 42.5713 76.4872 47.3278 79.3037C48.9207 80.2463 50.6999 80.7186 52.6481 80.7186C54.0222 80.7186 55.4839 80.4773 57.0229 80.0081V87.287C56.2819 86.0856 55.3505 85.0763 54.2176 84.2795C49.6821 81.0862 43.5373 82.266 41.814 82.687L39.6114 81.309C39.133 81.0092 38.506 81.1591 38.2098 81.6407C37.9136 82.1222 38.0612 82.7558 38.5376 83.0546L40.7158 84.4161C41.0568 86.1729 42.5591 92.2956 47.3278 95.1193C48.9207 96.0619 50.6989 96.5332 52.6471 96.5332C54.0222 96.5332 55.4839 96.2919 57.0229 95.8226V107.498C57.0229 108.065 57.4778 108.525 58.0407 108.525C58.6036 108.525 59.0586 108.065 59.0586 107.498V95.8483C60.5701 96.3032 62.0053 96.5332 63.358 96.5332C65.3062 96.5332 67.0844 96.0619 68.6783 95.1183C73.449 92.2936 74.9514 86.1667 75.2914 84.413L77.4645 83.0535C77.9419 82.7547 78.0884 82.1212 77.7922 81.6396C77.495 81.1581 76.8701 81.0082 76.3906 81.308L74.189 82.6849C72.4617 82.2639 66.32 81.0862 61.7885 84.2785C60.6973 85.0465 59.7874 86.0055 59.0586 87.1494V80.0338C60.5701 80.4886 62.0053 80.7186 63.358 80.7186C65.3062 80.7186 67.0844 80.2473 68.6783 79.3037C70.5339 78.205 71.8866 76.6043 72.877 74.9573L96.1126 98.3968C86.2211 108.014 72.7885 113.946 58 113.946C27.6933 113.946 3.03571 89.0736 3.03571 58.5ZM56.9374 77.8713C53.5703 79.007 50.6857 78.9063 48.367 77.5376C44.7424 75.3978 43.3001 70.728 42.836 68.7494C44.8086 68.3469 49.6017 67.7175 53.0512 70.1468C55.2579 71.7014 56.5546 74.3053 56.9374 77.8713ZM56.9374 93.6859C53.5693 94.8215 50.6847 94.7219 48.367 93.3522C44.7444 91.2134 43.3011 86.5467 42.837 84.567C44.8147 84.1676 49.621 83.5402 53.0603 85.9675C55.2609 87.5221 56.5546 90.125 56.9374 93.6859ZM59.0657 93.6859C59.4474 90.125 60.7431 87.5221 62.9437 85.9675C66.3871 83.5371 71.1945 84.1655 73.1701 84.566C72.7101 86.5405 71.2769 91.197 67.6462 93.3471C65.3255 94.7209 62.4358 94.8225 59.0657 93.6859Z" fill="#8EBF04"/>
<path d="M98.3886 99.0313C108.649 88.6279 115 74.2992 115 58.5C115 26.7949 89.4304 1 58 1C42.3382 1 28.134 7.40714 17.8221 17.7561C17.7804 17.7869 17.7326 17.8033 17.6959 17.8413C17.6593 17.8793 17.642 17.9276 17.6114 17.9687C7.35143 28.3721 1 42.7008 1 58.5C1 90.2051 26.5696 116 58 116C73.6618 116 87.866 109.593 98.1779 99.2439C98.2196 99.2131 98.2674 99.1967 98.3041 99.1587C98.3407 99.1207 98.358 99.0724 98.3886 99.0313ZM112.964 58.5C112.964 73.4182 107.083 86.9687 97.5499 96.9449L73.8674 73.0547C74.7183 71.151 75.1285 69.426 75.2863 68.6128L77.4614 67.2523C77.9398 66.9535 78.0864 66.321 77.7902 65.8384C77.495 65.3569 76.868 65.208 76.3896 65.5068L74.2033 66.8734C73.1427 66.6137 70.3598 66.0623 67.3144 66.4442L65.5515 64.6658C66.6569 64.441 67.7043 64.0631 68.6753 63.4881C73.446 60.6645 74.9483 54.5397 75.2883 52.7839L77.4614 51.4244C77.9388 51.1256 78.0854 50.4921 77.7892 50.0105C77.492 49.529 76.867 49.3801 76.3876 49.6789L74.188 51.0548C72.4638 50.6338 66.322 49.455 61.7864 52.6483C60.6953 53.4164 59.7853 54.3754 59.0565 55.5192V48.3964C60.564 48.8492 61.9961 49.0823 63.3458 49.0823C65.3001 49.0823 67.0844 48.6079 68.6814 47.6582C73.4226 44.8396 74.9321 38.758 75.2771 36.9888L77.4604 35.6242C77.9388 35.3254 78.0854 34.6929 77.7892 34.2104C77.494 33.7288 76.867 33.5799 76.3886 33.8787L74.1911 35.2525C72.4973 34.8367 66.4462 33.6631 61.9249 36.7373C60.7645 37.5258 59.8148 38.5383 59.0565 39.7386V36.2157C62.503 33.6251 64.3636 30.6022 64.5499 27.2159C64.8593 21.623 60.5212 16.9244 59.2408 15.6646V9.50179C59.2408 8.935 58.7858 8.475 58.2229 8.475C57.66 8.475 57.2051 8.935 57.2051 9.50179V15.6522C55.9185 16.8638 51.674 21.2842 51.789 26.8C51.8603 30.249 53.6324 33.4023 57.0208 36.1869V39.8638C56.5424 39.0886 55.9908 38.3894 55.3475 37.7897C55.3088 37.7374 55.265 37.6881 55.2162 37.6439C50.6429 33.4485 43.6472 34.8008 41.8069 35.2525L39.6083 33.8777C39.1299 33.5789 38.5019 33.7278 38.2078 34.2093C37.9116 34.6919 38.0592 35.3244 38.5365 35.6232L40.7188 36.9878C40.8583 37.7025 41.1911 39.1266 41.8507 40.7592L19.8894 18.6032C29.7789 8.98634 43.2116 3.05357 58 3.05357C88.3067 3.05357 112.964 27.9264 112.964 58.5ZM58.2107 17.5384C59.6123 19.0221 62.7544 22.8428 62.5193 27.1009C62.3707 29.7787 60.8632 32.2266 58.0692 34.3952C55.3241 32.0633 53.8858 29.5015 53.8268 26.7662C53.7342 22.5769 56.8173 18.9575 58.2107 17.5384ZM59.1817 61.144L60.4968 62.4706C60.0306 62.3587 59.5532 62.22 59.0657 62.0547C59.0993 61.7457 59.1349 61.4387 59.1817 61.144ZM59.7446 58.808C60.4082 56.8705 61.477 55.3734 62.9448 54.3374C66.3851 51.9091 71.1935 52.5364 73.1701 52.9369C72.7101 54.9124 71.2769 59.5689 67.6462 61.7179C66.4808 62.408 65.1678 62.7694 63.7275 62.8248L59.7446 58.808ZM42.84 37.1295C44.947 36.7024 50.2714 36.0175 53.722 39.0486C53.7616 39.102 53.8074 39.1523 53.8583 39.1975C55.5714 40.7304 56.5954 43.1044 56.9251 46.2412C53.5255 47.3892 50.6185 47.269 48.2876 45.8582C44.7251 43.702 43.3011 39.0927 42.84 37.1295ZM52.6328 49.0823C54.007 49.0823 55.4757 48.8328 57.0229 48.3615V55.6558C56.2819 54.4545 55.3505 53.4451 54.2176 52.6473C53.7749 52.3352 53.3128 52.0785 52.8446 51.8454L49.7126 48.686C50.6368 48.9468 51.6089 49.0823 52.6328 49.0823ZM55.8483 57.7812C56.405 58.9959 56.7633 60.4293 56.9374 62.0558C53.5693 63.1924 50.6847 63.0918 48.367 61.7221C44.7424 59.5822 43.3001 54.9124 42.836 52.9338C44.5541 52.5837 48.4047 52.0723 51.6537 53.5488L55.8483 57.7812ZM62.8827 64.8774L64.9316 66.9443C63.8486 67.278 62.7788 67.7647 61.7874 68.4629C60.6963 69.2309 59.7863 70.19 59.0576 71.3338V64.2182C60.396 64.6217 61.6694 64.8322 62.8827 64.8774ZM62.9448 70.153C64.0685 69.3593 65.3398 68.8952 66.6111 68.6395L71.3858 73.4562C70.5247 75.0097 69.3216 76.5396 67.6452 77.5325C65.3255 78.9053 62.4368 79.008 59.0657 77.8703C59.4484 74.3094 60.7431 71.7065 62.9448 70.153ZM69.227 68.3736C70.8606 68.353 72.2907 68.5738 73.1701 68.7514C73.0134 69.423 72.7437 70.3974 72.3131 71.4868L69.227 68.3736ZM59.0769 46.2402C59.4535 42.6136 60.79 39.9891 63.0567 38.4448C66.4798 36.1109 71.2036 36.7332 73.159 37.1305C72.6928 39.105 71.2505 43.7533 67.6401 45.8931C65.3255 47.267 62.4419 47.3717 59.0769 46.2402ZM3.03571 58.5C3.03571 43.5818 8.91689 30.0313 18.4501 20.0551L48.767 50.6379C45.7002 50.2375 42.8889 50.7929 41.812 51.0558L39.6114 49.6799C39.133 49.3811 38.506 49.53 38.2098 50.0116C37.9136 50.4931 38.0612 51.1267 38.5376 51.4254L40.7158 52.788C41.0578 54.5469 42.5601 60.6675 47.3288 63.4892C48.9207 64.4328 50.6999 64.9041 52.6481 64.9041C54.0222 64.9041 55.4839 64.6628 57.0229 64.1935V71.4724C56.2819 70.2711 55.3505 69.2617 54.2176 68.4639C49.6699 65.2614 43.5006 66.4576 41.7978 66.8745L39.6104 65.5068C39.132 65.208 38.504 65.3569 38.2098 65.8384C37.9136 66.321 38.0612 66.9535 38.5386 67.2523L40.7188 68.6149C41.0649 70.3892 42.5713 76.4872 47.3278 79.3037C48.9207 80.2463 50.6999 80.7186 52.6481 80.7186C54.0222 80.7186 55.4839 80.4773 57.0229 80.0081V87.287C56.2819 86.0856 55.3505 85.0763 54.2176 84.2795C49.6821 81.0862 43.5373 82.266 41.814 82.687L39.6114 81.309C39.133 81.0092 38.506 81.1591 38.2098 81.6407C37.9136 82.1222 38.0612 82.7558 38.5376 83.0546L40.7158 84.4161C41.0568 86.1729 42.5591 92.2956 47.3278 95.1193C48.9207 96.0619 50.6989 96.5332 52.6471 96.5332C54.0222 96.5332 55.4839 96.2919 57.0229 95.8226V107.498C57.0229 108.065 57.4778 108.525 58.0407 108.525C58.6036 108.525 59.0586 108.065 59.0586 107.498V95.8483C60.5701 96.3032 62.0053 96.5332 63.358 96.5332C65.3062 96.5332 67.0844 96.0619 68.6783 95.1183C73.449 92.2936 74.9514 86.1667 75.2914 84.413L77.4645 83.0535C77.9419 82.7547 78.0884 82.1212 77.7922 81.6396C77.495 81.1581 76.8701 81.0082 76.3906 81.308L74.189 82.6849C72.4617 82.2639 66.32 81.0862 61.7885 84.2785C60.6973 85.0465 59.7874 86.0055 59.0586 87.1494V80.0338C60.5701 80.4886 62.0053 80.7186 63.358 80.7186C65.3062 80.7186 67.0844 80.2473 68.6783 79.3037C70.5339 78.205 71.8866 76.6043 72.877 74.9573L96.1126 98.3968C86.2211 108.014 72.7885 113.946 58 113.946C27.6933 113.946 3.03571 89.0736 3.03571 58.5ZM56.9374 77.8713C53.5703 79.007 50.6857 78.9063 48.367 77.5376C44.7424 75.3978 43.3001 70.728 42.836 68.7494C44.8086 68.3469 49.6017 67.7175 53.0512 70.1468C55.2579 71.7014 56.5546 74.3053 56.9374 77.8713ZM56.9374 93.6859C53.5693 94.8215 50.6847 94.7219 48.367 93.3522C44.7444 91.2134 43.3011 86.5467 42.837 84.567C44.8147 84.1676 49.621 83.5402 53.0603 85.9675C55.2609 87.5221 56.5546 90.125 56.9374 93.6859ZM59.0657 93.6859C59.4474 90.125 60.7431 87.5221 62.9437 85.9675C66.3871 83.5371 71.1945 84.1655 73.1701 84.566C72.7101 86.5405 71.2769 91.197 67.6462 93.3471C65.3255 94.7209 62.4358 94.8225 59.0657 93.6859Z" stroke="#8EBF04" stroke-width="2" mask="url(#path-1-outside-1)"/>
</svg>
