<?xml version="1.0" encoding="UTF-8"?>
<svg xmlns="http://www.w3.org/2000/svg" xmlns:xlink="http://www.w3.org/1999/xlink" width="29pt" height="48pt" viewBox="0 0 29 48" version="1.1">
  <g id="surface1">
    <path style=" stroke:none;fill-rule:nonzero;fill:rgb(0%,66.666667%,0%);fill-opacity:1;" d="M 0 10.171875 L 29 10.171875 L 29 48.066406 L 0 48.066406 Z M 0 10.171875 "/>
    <path style=" stroke:none;fill-rule:nonzero;fill:rgb(49.019608%,49.019608%,49.019608%);fill-opacity:1;" d="M 2.074219 3.246094 L 2.074219 7.433594 L 0.363281 7.433594 L 0.363281 0.113281 L 1.699219 0.113281 L 5.15625 4.414062 L 5.15625 0.113281 L 6.867188 0.113281 L 6.867188 7.433594 L 5.488281 7.433594 Z M 2.074219 3.246094 "/>
    <path style=" stroke:none;fill-rule:nonzero;fill:rgb(49.019608%,49.019608%,49.019608%);fill-opacity:1;" d="M 11.546875 7.496094 C 10.996094 7.496094 10.492188 7.390625 10.042969 7.175781 C 9.589844 6.960938 9.203125 6.683594 8.882812 6.339844 C 8.5625 5.988281 8.3125 5.589844 8.128906 5.144531 C 7.957031 4.699219 7.867188 4.238281 7.867188 3.761719 C 7.867188 3.28125 7.960938 2.816406 8.140625 2.371094 C 8.328125 1.921875 8.585938 1.53125 8.914062 1.195312 C 9.246094 0.851562 9.640625 0.578125 10.09375 0.378906 C 10.546875 0.175781 11.039062 0.0703125 11.578125 0.0703125 C 12.125 0.0703125 12.628906 0.179688 13.082031 0.390625 C 13.53125 0.605469 13.917969 0.886719 14.238281 1.238281 C 14.558594 1.585938 14.808594 1.984375 14.980469 2.433594 C 15.15625 2.878906 15.242188 3.332031 15.242188 3.792969 C 15.242188 4.273438 15.148438 4.738281 14.960938 5.1875 C 14.777344 5.632812 14.523438 6.027344 14.199219 6.371094 C 13.871094 6.707031 13.480469 6.980469 13.027344 7.1875 C 12.574219 7.390625 12.082031 7.496094 11.546875 7.496094 Z M 9.613281 3.785156 C 9.613281 4.066406 9.65625 4.339844 9.738281 4.609375 C 9.820312 4.871094 9.945312 5.101562 10.105469 5.308594 C 10.269531 5.515625 10.476562 5.679688 10.71875 5.804688 C 10.964844 5.929688 11.242188 5.988281 11.554688 5.988281 C 11.882812 5.988281 12.167969 5.925781 12.410156 5.792969 C 12.65625 5.664062 12.855469 5.496094 13.015625 5.289062 C 13.175781 5.074219 13.296875 4.839844 13.371094 4.578125 C 13.457031 4.308594 13.496094 4.039062 13.496094 3.761719 C 13.496094 3.480469 13.457031 3.210938 13.371094 2.949219 C 13.289062 2.679688 13.164062 2.445312 12.996094 2.246094 C 12.828125 2.039062 12.625 1.878906 12.378906 1.761719 C 12.144531 1.636719 11.867188 1.578125 11.554688 1.578125 C 11.226562 1.578125 10.941406 1.640625 10.699219 1.773438 C 10.460938 1.894531 10.261719 2.0625 10.09375 2.265625 C 9.933594 2.472656 9.8125 2.710938 9.726562 2.980469 C 9.652344 3.238281 9.613281 3.507812 9.613281 3.785156 Z M 9.613281 3.785156 "/>
    <path style=" stroke:none;fill-rule:nonzero;fill:rgb(49.019608%,49.019608%,49.019608%);fill-opacity:1;" d="M 17.042969 0.113281 L 18.785156 5.308594 L 20.507812 0.113281 L 22.316406 0.113281 L 19.507812 7.433594 L 18.066406 7.433594 L 15.226562 0.113281 Z M 17.042969 0.113281 "/>
    <path style=" stroke:none;fill-rule:nonzero;fill:rgb(49.019608%,49.019608%,49.019608%);fill-opacity:1;" d="M 24.386719 0.113281 L 25.933594 0.113281 L 28.636719 7.433594 L 26.882812 7.433594 L 26.308594 5.792969 L 24 5.792969 L 23.4375 7.433594 L 21.683594 7.433594 Z M 26.027344 4.628906 L 25.160156 2.039062 L 24.273438 4.628906 Z M 26.027344 4.628906 "/>
    <path style=" stroke:none;fill-rule:nonzero;fill:rgb(100%,100%,100%);fill-opacity:1;" d="M 18.285156 40.511719 L 13.40625 40.511719 L 13.40625 27.328125 L 13.453125 25.160156 L 13.53125 22.789062 C 12.722656 23.589844 12.160156 24.117188 11.84375 24.363281 L 9.191406 26.46875 L 6.839844 23.570312 L 14.273438 17.726562 L 18.285156 17.726562 Z M 18.285156 40.511719 "/>
  </g>
</svg>