<?xml version="1.0" encoding="UTF-8"?>
<svg xmlns="http://www.w3.org/2000/svg" xmlns:xlink="http://www.w3.org/1999/xlink" width="48pt" height="26pt" viewBox="0 0 48 26" version="1.1">
  <g id="surface1">
    <path style=" stroke:none;fill-rule:evenodd;fill:rgb(100%,100%,100%);fill-opacity:1;" d="M 4.449219 0 L 43.550781 0 C 46.015625 0 48 1.984375 48 4.449219 L 48 20.074219 C 48 22.539062 46.015625 24.523438 43.550781 24.523438 L 4.449219 24.523438 C 1.984375 24.523438 0 22.539062 0 20.074219 L 0 4.449219 C 0 1.984375 1.984375 0 4.449219 0 Z M 4.449219 0 "/>
    <path style=" stroke:none;fill-rule:evenodd;fill:rgb(90.196078%,24.313725%,6.666667%);fill-opacity:1;" d="M 33.304688 8.839844 L 42.273438 8.839844 L 42.273438 23.324219 L 33.304688 23.324219 Z M 33.304688 8.839844 "/>
    <path style=" stroke:none;fill-rule:evenodd;fill:rgb(1.176471%,50.588235%,25.490196%);fill-opacity:1;" d="M 7.1875 8.839844 L 16.15625 8.839844 L 16.15625 23.324219 L 7.1875 23.324219 Z M 7.1875 8.839844 "/>
    <path style=" stroke:none;fill-rule:evenodd;fill:rgb(1.176471%,50.588235%,25.490196%);fill-opacity:1;" d="M 5.359375 8.839844 L 7.601562 8.839844 C 9.464844 8.839844 10.964844 10.339844 10.964844 12.203125 L 10.964844 19.960938 C 10.964844 21.824219 9.464844 23.324219 7.601562 23.324219 L 5.359375 23.324219 C 3.496094 23.324219 1.996094 21.824219 1.996094 19.960938 L 1.996094 12.203125 C 1.996094 10.339844 3.496094 8.839844 5.359375 8.839844 Z M 5.359375 8.839844 "/>
    <path style=" stroke:none;fill-rule:nonzero;fill:rgb(100%,100%,100%);fill-opacity:0.447059;" d="M 5.304688 12.699219 L 6.671875 12.699219 L 9.066406 19.265625 L 7.515625 19.265625 L 7.003906 17.796875 L 4.960938 17.796875 L 4.460938 19.265625 L 2.90625 19.265625 Z M 6.753906 16.75 L 5.988281 14.429688 L 5.203125 16.75 Z M 6.753906 16.75 "/>
    <path style=" stroke:none;fill-rule:evenodd;fill:rgb(90.196078%,24.313725%,6.666667%);fill-opacity:1;" d="M 41.234375 8.839844 L 43.472656 8.839844 C 45.335938 8.839844 46.835938 10.339844 46.835938 12.203125 L 46.835938 19.960938 C 46.835938 21.824219 45.335938 23.324219 43.472656 23.324219 L 41.234375 23.324219 C 39.367188 23.324219 37.867188 21.824219 37.867188 19.960938 L 37.867188 12.203125 C 37.867188 10.339844 39.367188 8.839844 41.234375 8.839844 Z M 41.234375 8.839844 "/>
    <path style=" stroke:none;fill-rule:nonzero;fill:rgb(100%,100%,100%);fill-opacity:0.447059;" d="M 44.175781 17.933594 L 44.175781 19.265625 L 39.5625 19.265625 L 39.5625 12.699219 L 44.09375 12.699219 L 44.09375 14.03125 L 41.078125 14.03125 L 41.078125 15.308594 L 43.667969 15.308594 L 43.667969 16.539062 L 41.078125 16.539062 L 41.078125 17.933594 Z M 44.175781 17.933594 "/>
    <path style=" stroke:none;fill-rule:nonzero;fill:rgb(49.019608%,49.019608%,49.019608%);fill-opacity:1;" d="M 3.855469 4.03125 L 3.855469 5.929688 L 3.085938 5.929688 L 3.085938 2.609375 L 3.683594 2.609375 L 5.234375 4.558594 L 5.234375 2.609375 L 6 2.609375 L 6 5.929688 L 5.382812 5.929688 Z M 3.855469 4.03125 "/>
    <path style=" stroke:none;fill-rule:nonzero;fill:rgb(49.019608%,49.019608%,49.019608%);fill-opacity:1;" d="M 8.066406 5.273438 C 8.195312 5.273438 8.304688 5.246094 8.398438 5.195312 C 8.488281 5.140625 8.558594 5.066406 8.617188 4.976562 C 8.671875 4.882812 8.710938 4.78125 8.734375 4.667969 C 8.757812 4.546875 8.769531 4.429688 8.769531 4.304688 L 8.769531 2.609375 L 9.539062 2.609375 L 9.539062 4.304688 C 9.539062 4.539062 9.507812 4.753906 9.449219 4.953125 C 9.390625 5.152344 9.304688 5.324219 9.183594 5.476562 C 9.0625 5.625 8.910156 5.742188 8.722656 5.832031 C 8.539062 5.914062 8.320312 5.957031 8.066406 5.957031 C 7.800781 5.957031 7.574219 5.910156 7.386719 5.820312 C 7.199219 5.730469 7.046875 5.609375 6.929688 5.460938 C 6.8125 5.308594 6.726562 5.132812 6.671875 4.933594 C 6.617188 4.734375 6.59375 4.523438 6.59375 4.304688 L 6.59375 2.609375 L 7.359375 2.609375 L 7.359375 4.304688 C 7.359375 4.433594 7.371094 4.554688 7.394531 4.671875 C 7.421875 4.785156 7.460938 4.890625 7.519531 4.980469 C 7.574219 5.070312 7.644531 5.140625 7.734375 5.195312 C 7.824219 5.246094 7.933594 5.273438 8.066406 5.273438 Z M 8.066406 5.273438 "/>
    <path style=" stroke:none;fill-rule:nonzero;fill:rgb(49.019608%,49.019608%,49.019608%);fill-opacity:1;" d="M 12.65625 3.28125 L 11.644531 3.28125 L 11.644531 5.929688 L 10.878906 5.929688 L 10.878906 3.28125 L 9.863281 3.28125 L 9.863281 2.609375 L 12.65625 2.609375 Z M 12.65625 3.28125 "/>
    <path style=" stroke:none;fill-rule:nonzero;fill:rgb(49.019608%,49.019608%,49.019608%);fill-opacity:1;" d="M 13.03125 5.929688 L 13.03125 2.609375 L 14.527344 2.609375 C 14.683594 2.609375 14.824219 2.640625 14.957031 2.707031 C 15.089844 2.773438 15.207031 2.859375 15.300781 2.964844 C 15.398438 3.070312 15.472656 3.191406 15.527344 3.324219 C 15.582031 3.457031 15.609375 3.59375 15.609375 3.730469 C 15.609375 3.835938 15.597656 3.933594 15.574219 4.03125 C 15.550781 4.125 15.511719 4.214844 15.464844 4.296875 C 15.417969 4.382812 15.363281 4.457031 15.292969 4.527344 C 15.226562 4.589844 15.152344 4.648438 15.070312 4.695312 L 15.796875 5.929688 L 14.933594 5.929688 L 14.296875 4.859375 L 13.796875 4.859375 L 13.796875 5.929688 Z M 13.796875 4.191406 L 14.5 4.191406 C 14.589844 4.191406 14.667969 4.148438 14.730469 4.0625 C 14.796875 3.976562 14.832031 3.867188 14.832031 3.730469 C 14.832031 3.59375 14.792969 3.484375 14.71875 3.40625 C 14.644531 3.324219 14.5625 3.28125 14.476562 3.28125 L 13.796875 3.28125 Z M 13.796875 4.191406 "/>
    <path style=" stroke:none;fill-rule:nonzero;fill:rgb(49.019608%,49.019608%,49.019608%);fill-opacity:1;" d="M 16.164062 5.929688 L 16.164062 2.609375 L 16.929688 2.609375 L 16.929688 5.929688 Z M 16.164062 5.929688 "/>
    <path style=" stroke:none;fill-rule:nonzero;fill:rgb(49.019608%,49.019608%,49.019608%);fill-opacity:1;" d="M 17.503906 4.980469 L 17.503906 4.304688 L 18.941406 4.304688 L 18.941406 4.980469 Z M 17.503906 4.980469 "/>
    <path style=" stroke:none;fill-rule:nonzero;fill:rgb(49.019608%,49.019608%,49.019608%);fill-opacity:1;" d="M 21.503906 3.582031 C 21.496094 3.570312 21.464844 3.546875 21.40625 3.511719 C 21.351562 3.476562 21.28125 3.441406 21.195312 3.40625 C 21.113281 3.367188 21.019531 3.335938 20.921875 3.304688 C 20.820312 3.277344 20.722656 3.265625 20.621094 3.265625 C 20.347656 3.265625 20.210938 3.355469 20.210938 3.539062 C 20.210938 3.597656 20.222656 3.644531 20.253906 3.679688 C 20.285156 3.71875 20.328125 3.75 20.382812 3.78125 C 20.441406 3.8125 20.515625 3.835938 20.601562 3.863281 C 20.691406 3.886719 20.792969 3.914062 20.90625 3.945312 C 21.066406 3.992188 21.210938 4.039062 21.335938 4.089844 C 21.464844 4.140625 21.570312 4.207031 21.660156 4.285156 C 21.75 4.359375 21.820312 4.449219 21.863281 4.558594 C 21.914062 4.667969 21.941406 4.800781 21.941406 4.953125 C 21.941406 5.140625 21.902344 5.296875 21.832031 5.429688 C 21.765625 5.554688 21.671875 5.660156 21.554688 5.742188 C 21.441406 5.820312 21.308594 5.878906 21.160156 5.914062 C 21.007812 5.949219 20.855469 5.964844 20.695312 5.964844 C 20.574219 5.964844 20.449219 5.957031 20.324219 5.9375 C 20.195312 5.917969 20.070312 5.894531 19.949219 5.859375 C 19.828125 5.820312 19.707031 5.777344 19.59375 5.726562 C 19.480469 5.679688 19.375 5.621094 19.28125 5.554688 L 19.617188 4.886719 C 19.628906 4.902344 19.667969 4.929688 19.738281 4.976562 C 19.804688 5.019531 19.890625 5.0625 19.992188 5.105469 C 20.09375 5.148438 20.207031 5.1875 20.332031 5.222656 C 20.457031 5.257812 20.582031 5.273438 20.710938 5.273438 C 20.980469 5.273438 21.117188 5.191406 21.117188 5.027344 C 21.117188 4.964844 21.097656 4.914062 21.054688 4.871094 C 21.015625 4.832031 20.960938 4.796875 20.886719 4.765625 C 20.816406 4.730469 20.730469 4.699219 20.632812 4.671875 C 20.535156 4.644531 20.429688 4.613281 20.3125 4.578125 C 20.160156 4.53125 20.027344 4.480469 19.914062 4.429688 C 19.804688 4.371094 19.710938 4.308594 19.636719 4.238281 C 19.5625 4.164062 19.507812 4.082031 19.472656 3.988281 C 19.4375 3.894531 19.421875 3.785156 19.421875 3.660156 C 19.421875 3.488281 19.453125 3.332031 19.519531 3.199219 C 19.582031 3.066406 19.671875 2.953125 19.785156 2.863281 C 19.898438 2.769531 20.027344 2.699219 20.171875 2.652344 C 20.324219 2.605469 20.480469 2.582031 20.644531 2.582031 C 20.761719 2.582031 20.875 2.59375 20.984375 2.613281 C 21.097656 2.636719 21.207031 2.664062 21.308594 2.699219 C 21.410156 2.734375 21.507812 2.773438 21.59375 2.816406 C 21.683594 2.859375 21.765625 2.902344 21.84375 2.945312 Z M 21.503906 3.582031 "/>
    <path style=" stroke:none;fill-rule:nonzero;fill:rgb(49.019608%,49.019608%,49.019608%);fill-opacity:1;" d="M 22.199219 4.242188 C 22.199219 4.042969 22.234375 3.84375 22.308594 3.648438 C 22.386719 3.449219 22.496094 3.269531 22.636719 3.113281 C 22.78125 2.957031 22.957031 2.832031 23.160156 2.734375 C 23.367188 2.640625 23.601562 2.589844 23.863281 2.589844 C 24.175781 2.589844 24.445312 2.65625 24.671875 2.792969 C 24.902344 2.925781 25.074219 3.101562 25.1875 3.316406 L 24.597656 3.726562 C 24.558594 3.640625 24.511719 3.566406 24.453125 3.511719 C 24.394531 3.453125 24.332031 3.40625 24.265625 3.371094 C 24.195312 3.335938 24.125 3.308594 24.054688 3.296875 C 23.984375 3.28125 23.914062 3.273438 23.84375 3.273438 C 23.699219 3.273438 23.570312 3.304688 23.460938 3.363281 C 23.351562 3.421875 23.261719 3.496094 23.1875 3.589844 C 23.117188 3.683594 23.066406 3.789062 23.03125 3.910156 C 22.996094 4.027344 22.980469 4.148438 22.980469 4.269531 C 22.980469 4.398438 23 4.527344 23.039062 4.648438 C 23.082031 4.769531 23.136719 4.878906 23.210938 4.96875 C 23.289062 5.0625 23.382812 5.140625 23.488281 5.195312 C 23.597656 5.246094 23.71875 5.273438 23.851562 5.273438 C 23.921875 5.273438 23.992188 5.265625 24.0625 5.25 C 24.136719 5.230469 24.207031 5.207031 24.273438 5.171875 C 24.34375 5.132812 24.40625 5.085938 24.460938 5.03125 C 24.515625 4.972656 24.5625 4.898438 24.597656 4.816406 L 25.222656 5.183594 C 25.171875 5.308594 25.097656 5.417969 25 5.511719 C 24.902344 5.609375 24.789062 5.691406 24.660156 5.757812 C 24.535156 5.820312 24.398438 5.871094 24.253906 5.90625 C 24.113281 5.941406 23.972656 5.957031 23.835938 5.957031 C 23.59375 5.957031 23.375 5.910156 23.171875 5.8125 C 22.972656 5.710938 22.796875 5.582031 22.652344 5.417969 C 22.507812 5.257812 22.394531 5.074219 22.316406 4.867188 C 22.238281 4.660156 22.199219 4.453125 22.199219 4.242188 Z M 22.199219 4.242188 "/>
    <path style=" stroke:none;fill-rule:nonzero;fill:rgb(49.019608%,49.019608%,49.019608%);fill-opacity:1;" d="M 27.019531 5.957031 C 26.773438 5.957031 26.550781 5.910156 26.347656 5.8125 C 26.144531 5.714844 25.972656 5.589844 25.828125 5.433594 C 25.6875 5.273438 25.574219 5.09375 25.492188 4.890625 C 25.414062 4.6875 25.375 4.480469 25.375 4.265625 C 25.375 4.046875 25.417969 3.835938 25.496094 3.632812 C 25.582031 3.429688 25.695312 3.253906 25.84375 3.101562 C 25.992188 2.945312 26.167969 2.820312 26.371094 2.730469 C 26.574219 2.636719 26.796875 2.589844 27.035156 2.589844 C 27.28125 2.589844 27.507812 2.640625 27.707031 2.734375 C 27.910156 2.832031 28.085938 2.960938 28.226562 3.117188 C 28.371094 3.277344 28.480469 3.457031 28.558594 3.660156 C 28.636719 3.863281 28.675781 4.070312 28.675781 4.277344 C 28.675781 4.496094 28.632812 4.707031 28.550781 4.910156 C 28.46875 5.113281 28.355469 5.292969 28.207031 5.449219 C 28.0625 5.601562 27.886719 5.722656 27.683594 5.816406 C 27.484375 5.910156 27.261719 5.957031 27.019531 5.957031 Z M 26.15625 4.273438 C 26.15625 4.402344 26.175781 4.527344 26.210938 4.648438 C 26.25 4.765625 26.304688 4.871094 26.375 4.964844 C 26.449219 5.058594 26.542969 5.132812 26.652344 5.191406 C 26.761719 5.246094 26.886719 5.273438 27.027344 5.273438 C 27.171875 5.273438 27.300781 5.246094 27.410156 5.183594 C 27.519531 5.125 27.609375 5.050781 27.679688 4.957031 C 27.753906 4.859375 27.804688 4.753906 27.839844 4.632812 C 27.878906 4.511719 27.894531 4.390625 27.894531 4.265625 C 27.894531 4.136719 27.878906 4.011719 27.839844 3.894531 C 27.800781 3.773438 27.746094 3.667969 27.671875 3.578125 C 27.597656 3.484375 27.503906 3.410156 27.394531 3.359375 C 27.289062 3.300781 27.167969 3.273438 27.027344 3.273438 C 26.878906 3.273438 26.75 3.304688 26.644531 3.363281 C 26.535156 3.417969 26.445312 3.492188 26.371094 3.585938 C 26.300781 3.679688 26.246094 3.789062 26.207031 3.910156 C 26.171875 4.027344 26.15625 4.148438 26.15625 4.273438 Z M 26.15625 4.273438 "/>
    <path style=" stroke:none;fill-rule:nonzero;fill:rgb(49.019608%,49.019608%,49.019608%);fill-opacity:1;" d="M 29.121094 5.929688 L 29.121094 2.609375 L 30.617188 2.609375 C 30.769531 2.609375 30.914062 2.640625 31.046875 2.707031 C 31.179688 2.773438 31.296875 2.859375 31.390625 2.964844 C 31.488281 3.070312 31.5625 3.191406 31.617188 3.324219 C 31.671875 3.457031 31.699219 3.59375 31.699219 3.730469 C 31.699219 3.835938 31.6875 3.933594 31.664062 4.03125 C 31.636719 4.125 31.601562 4.214844 31.554688 4.296875 C 31.507812 4.382812 31.449219 4.457031 31.382812 4.527344 C 31.316406 4.589844 31.242188 4.648438 31.15625 4.695312 L 31.886719 5.929688 L 31.023438 5.929688 L 30.386719 4.859375 L 29.886719 4.859375 L 29.886719 5.929688 Z M 29.886719 4.191406 L 30.585938 4.191406 C 30.679688 4.191406 30.753906 4.148438 30.820312 4.0625 C 30.886719 3.976562 30.917969 3.867188 30.917969 3.730469 C 30.917969 3.59375 30.882812 3.484375 30.808594 3.40625 C 30.730469 3.324219 30.652344 3.28125 30.5625 3.28125 L 29.886719 3.28125 Z M 29.886719 4.191406 "/>
    <path style=" stroke:none;fill-rule:nonzero;fill:rgb(49.019608%,49.019608%,49.019608%);fill-opacity:1;" d="M 34.585938 5.253906 L 34.585938 5.929688 L 32.25 5.929688 L 32.25 2.609375 L 34.542969 2.609375 L 34.542969 3.28125 L 33.019531 3.28125 L 33.019531 3.929688 L 34.328125 3.929688 L 34.328125 4.550781 L 33.019531 4.550781 L 33.019531 5.253906 Z M 34.585938 5.253906 "/>
    <path style=" stroke:none;fill-rule:evenodd;fill:rgb(93.333333%,50.588235%,0%);fill-opacity:1;" d="M 11.269531 8.839844 L 20.238281 8.839844 L 20.238281 23.324219 L 11.269531 23.324219 Z M 11.269531 8.839844 "/>
    <path style=" stroke:none;fill-rule:evenodd;fill:rgb(93.333333%,50.588235%,0%);fill-opacity:1;" d="M 28.914062 8.839844 L 37.882812 8.839844 L 37.882812 23.324219 L 28.914062 23.324219 Z M 28.914062 8.839844 "/>
    <path style=" stroke:none;fill-rule:nonzero;fill:rgb(100%,100%,100%);fill-opacity:0.447059;" d="M 30.535156 19.265625 L 30.535156 12.699219 L 32.988281 12.699219 C 33.53125 12.699219 34.003906 12.785156 34.410156 12.957031 C 34.820312 13.128906 35.15625 13.363281 35.429688 13.660156 C 35.707031 13.957031 35.914062 14.304688 36.050781 14.707031 C 36.191406 15.101562 36.261719 15.523438 36.261719 15.972656 C 36.261719 16.472656 36.183594 16.925781 36.03125 17.332031 C 35.875 17.734375 35.652344 18.078125 35.363281 18.367188 C 35.082031 18.652344 34.734375 18.875 34.328125 19.035156 C 33.925781 19.1875 33.480469 19.265625 32.988281 19.265625 Z M 34.71875 15.972656 C 34.71875 15.683594 34.675781 15.421875 34.597656 15.1875 C 34.523438 14.945312 34.410156 14.738281 34.265625 14.566406 C 34.117188 14.394531 33.933594 14.261719 33.71875 14.167969 C 33.503906 14.078125 33.257812 14.03125 32.988281 14.03125 L 32.054688 14.03125 L 32.054688 17.933594 L 32.988281 17.933594 C 33.265625 17.933594 33.511719 17.886719 33.726562 17.785156 C 33.941406 17.6875 34.121094 17.550781 34.265625 17.378906 C 34.410156 17.199219 34.523438 16.992188 34.597656 16.757812 C 34.675781 16.519531 34.71875 16.257812 34.71875 15.972656 Z M 34.71875 15.972656 "/>
    <path style=" stroke:none;fill-rule:evenodd;fill:rgb(99.607843%,79.607843%,0.784314%);fill-opacity:1;" d="M 19.460938 8.839844 L 28.929688 8.839844 L 28.929688 23.324219 L 19.460938 23.324219 Z M 19.460938 8.839844 "/>
    <path style=" stroke:none;fill-rule:evenodd;fill:rgb(52.156863%,73.333333%,18.431373%);fill-opacity:1;" d="M 19.917969 8.839844 L 10.949219 8.839844 L 10.949219 23.324219 L 19.917969 23.324219 Z M 19.917969 8.839844 "/>
    <path style=" stroke:none;fill-rule:nonzero;fill:rgb(100%,100%,100%);fill-opacity:0.447059;" d="M 21.203125 15.871094 C 21.203125 15.476562 21.277344 15.085938 21.425781 14.695312 C 21.574219 14.300781 21.789062 13.949219 22.070312 13.640625 C 22.355469 13.335938 22.699219 13.085938 23.109375 12.894531 C 23.515625 12.703125 23.976562 12.605469 24.496094 12.605469 C 25.113281 12.605469 25.644531 12.738281 26.09375 13.003906 C 26.550781 13.269531 26.890625 13.613281 27.113281 14.039062 L 25.945312 14.855469 C 25.875 14.679688 25.777344 14.539062 25.660156 14.429688 C 25.550781 14.3125 25.425781 14.21875 25.289062 14.152344 C 25.15625 14.078125 25.015625 14.027344 24.875 14.003906 C 24.734375 13.972656 24.59375 13.957031 24.457031 13.957031 C 24.167969 13.957031 23.914062 14.015625 23.699219 14.132812 C 23.484375 14.25 23.304688 14.402344 23.164062 14.585938 C 23.019531 14.769531 22.917969 14.980469 22.847656 15.214844 C 22.78125 15.449219 22.746094 15.6875 22.746094 15.925781 C 22.746094 16.1875 22.785156 16.4375 22.867188 16.675781 C 22.949219 16.917969 23.0625 17.128906 23.210938 17.316406 C 23.363281 17.5 23.546875 17.648438 23.753906 17.757812 C 23.972656 17.863281 24.210938 17.914062 24.476562 17.914062 C 24.613281 17.914062 24.75 17.898438 24.894531 17.871094 C 25.039062 17.832031 25.179688 17.78125 25.308594 17.710938 C 25.445312 17.636719 25.566406 17.546875 25.679688 17.433594 C 25.789062 17.316406 25.878906 17.175781 25.945312 17.007812 L 27.1875 17.738281 C 27.089844 17.980469 26.941406 18.195312 26.742188 18.386719 C 26.550781 18.578125 26.328125 18.738281 26.078125 18.867188 C 25.824219 18.996094 25.554688 19.097656 25.273438 19.164062 C 24.988281 19.230469 24.710938 19.265625 24.441406 19.265625 C 23.964844 19.265625 23.527344 19.171875 23.125 18.980469 C 22.730469 18.78125 22.390625 18.523438 22.097656 18.203125 C 21.816406 17.882812 21.59375 17.519531 21.433594 17.109375 C 21.28125 16.703125 21.203125 16.289062 21.203125 15.871094 Z M 21.203125 15.871094 "/>
    <path style=" stroke:none;fill-rule:nonzero;fill:rgb(100%,100%,100%);fill-opacity:0.447059;" d="M 18.625 17.582031 C 18.625 17.867188 18.566406 18.113281 18.449219 18.324219 C 18.332031 18.53125 18.171875 18.707031 17.96875 18.851562 C 17.765625 18.984375 17.527344 19.089844 17.257812 19.164062 C 16.984375 19.230469 16.699219 19.265625 16.398438 19.265625 L 13.195312 19.265625 L 13.195312 12.699219 L 16.851562 12.699219 C 17.078125 12.699219 17.285156 12.75 17.46875 12.847656 C 17.65625 12.945312 17.8125 13.074219 17.941406 13.234375 C 18.070312 13.390625 18.171875 13.570312 18.238281 13.773438 C 18.3125 13.96875 18.347656 14.171875 18.347656 14.382812 C 18.347656 14.695312 18.269531 14.992188 18.109375 15.269531 C 17.953125 15.546875 17.71875 15.757812 17.40625 15.898438 C 17.78125 16.011719 18.078125 16.207031 18.292969 16.492188 C 18.515625 16.773438 18.625 17.140625 18.625 17.582031 Z M 17.082031 17.277344 C 17.082031 17.074219 17.023438 16.902344 16.90625 16.757812 C 16.789062 16.617188 16.640625 16.546875 16.460938 16.546875 L 14.714844 16.546875 L 14.714844 17.980469 L 16.398438 17.980469 C 16.59375 17.980469 16.757812 17.914062 16.886719 17.785156 C 17.015625 17.65625 17.082031 17.488281 17.082031 17.277344 Z M 14.714844 13.992188 L 14.714844 15.355469 L 16.203125 15.355469 C 16.371094 15.355469 16.519531 15.296875 16.648438 15.1875 C 16.777344 15.074219 16.839844 14.902344 16.839844 14.667969 C 16.839844 14.453125 16.78125 14.285156 16.664062 14.167969 C 16.554688 14.050781 16.417969 13.992188 16.257812 13.992188 Z M 14.714844 13.992188 "/>
    <path style="fill-rule:evenodd;fill:rgb(0%,22.352941%,100%);fill-opacity:0.631373;stroke-width:61.031788;stroke-linecap:round;stroke-linejoin:round;stroke:rgb(100%,100%,100%);stroke-opacity:1;stroke-miterlimit:4;" d="M -372.638146 281.589104 L -333.269428 281.589104 C -224.649712 281.589104 -137.058266 369.180549 -137.058266 477.800266 L -137.058266 821.841754 C -137.058266 930.46147 -224.649712 1017.894808 -333.269428 1017.894808 L -372.638146 1017.894808 C -481.415969 1017.894808 -568.849307 930.46147 -568.849307 821.841754 L -568.849307 477.800266 C -568.849307 369.180549 -481.415969 281.589104 -372.638146 281.589104 Z M -372.638146 281.589104 " transform="matrix(0.0247063,0,0,0.0247063,14.808081,0)"/>
    <path style=" stroke:none;fill-rule:evenodd;fill:rgb(1.176471%,50.588235%,25.490196%);fill-opacity:1;" d="M 5.601562 6.957031 L 6.574219 6.957031 C 9.257812 6.957031 11.421875 9.121094 11.421875 11.804688 L 11.421875 20.304688 C 11.421875 22.988281 9.257812 25.148438 6.574219 25.148438 L 5.601562 25.148438 C 2.914062 25.148438 0.753906 22.988281 0.753906 20.304688 L 0.753906 11.804688 C 0.753906 9.121094 2.914062 6.957031 5.601562 6.957031 Z M 5.601562 6.957031 "/>
    <path style=" stroke:none;fill-rule:nonzero;fill:rgb(100%,100%,100%);fill-opacity:1;" d="M 5.257812 11.902344 L 6.914062 11.902344 L 9.8125 20.558594 L 7.933594 20.558594 L 7.316406 18.621094 L 4.84375 18.621094 L 4.242188 20.558594 L 2.363281 20.558594 Z M 7.015625 17.242188 L 6.085938 14.183594 L 5.136719 17.242188 Z M 7.015625 17.242188 "/>
  </g>
</svg>
