<svg width="108" height="106" viewBox="0 0 1524 1524" fill="none" xmlns="http://www.w3.org/2000/svg">
<path d="M762.001 1336.55C1079.31 1336.55 1336.55 1079.31 1336.55 762.001C1336.55 444.687 1079.31 187.453 762.001 187.453C444.687 187.453 187.453 444.687 187.453 762.001C187.453 1079.31 444.687 1336.55 762.001 1336.55Z" fill="#8EBF04"/>
<path d="M774.956 797.815V794.005L757.43 795.529L739.904 794.005V797.815L596.648 812.293C596.648 812.293 701.042 1007.37 716.282 1195.58C717.044 1196.34 739.142 1196.34 757.43 1196.34C776.48 1196.34 797.816 1197.1 798.578 1195.58C813.818 1007.37 918.212 812.293 918.212 812.293L774.956 797.815ZM756.668 969.265C756.668 957.073 704.852 800.863 704.852 800.863L846.584 804.673C804.674 816.865 759.716 965.455 756.668 969.265Z" fill="white" stroke="#2B2B2B" stroke-width="6" stroke-miterlimit="10" stroke-linecap="round" stroke-linejoin="round"/>
<path d="M1026.41 608.077C1013.46 555.499 975.361 512.065 925.831 492.253C918.211 425.959 862.585 374.143 794.005 374.143C748.285 374.143 708.661 397.003 684.277 432.055C675.895 430.531 667.513 429.769 659.131 429.769C594.361 429.769 540.259 476.251 528.829 538.735C452.629 559.309 397.765 631.699 403.861 715.519C409.957 796.291 473.203 862.585 553.975 870.967C588.265 874.777 620.269 868.681 648.463 854.203C678.181 878.587 715.519 893.827 757.429 893.827C812.293 893.827 861.061 867.919 892.303 827.533C918.973 855.727 957.835 871.729 1000.51 868.681C1064.51 863.347 1116.33 810.769 1120.9 745.999C1125.47 680.467 1084.33 625.603 1026.41 608.077Z" fill="#8EBF04" stroke="#2B2B2B" stroke-width="6" stroke-miterlimit="10" stroke-linecap="round" stroke-linejoin="round"/>
<path d="M595.885 661.417C595.885 661.417 593.599 572.263 710.185 579.883Z" fill="#8EBF04"/>
<path d="M595.885 661.417C595.885 661.417 593.599 572.263 710.185 579.883" stroke="#2B2B2B" stroke-width="6" stroke-miterlimit="10" stroke-linecap="round" stroke-linejoin="round"/>
</svg>
