<svg width="111" height="111" viewBox="0 0 111 111" fill="none" xmlns="http://www.w3.org/2000/svg">
<path d="M9.05076 66.3717L62.8615 12.5608C65.8442 9.57835 69.8543 7.89924 74.0649 7.82396L101.509 7.47317C103.665 7.44801 105.72 7.94935 107.499 8.90172C105.369 4.81632 101.058 2.03429 96.0956 2.08441L68.6762 2.4352C64.4656 2.48531 60.4555 4.18959 57.4728 7.17207L3.66199 60.9832C0.654338 63.9908 0.654338 68.878 3.66199 71.8857L9.05055 77.2742C6.04311 74.2666 6.04311 69.3794 9.05076 66.3717Z" fill="#5E7296"/>
<path d="M110.083 14.9181L110.008 19.9307L109.958 22.7376L109.707 42.3622C109.682 44.5175 109.256 46.6478 108.454 48.6029L107.377 50.8337C106.65 52.0867 105.722 53.2896 104.67 54.3424L50.8587 108.178C49.1796 109.858 46.9488 110.785 44.5929 110.785C42.2369 110.785 40.0063 109.858 38.327 108.178L2.86239 72.7137C1.18327 71.0344 0.255859 68.829 0.255859 66.4479C0.255859 64.0667 1.18327 61.8613 2.86239 60.182L56.6734 6.37133C59.8813 3.16302 64.1422 1.35851 68.6786 1.3084L96.1228 0.957818C99.8574 0.907704 103.391 2.33646 106.048 4.9931C108.705 7.64974 110.133 11.1585 110.083 14.9181Z" fill="white"/>
<path fill-rule="evenodd" clip-rule="evenodd" d="M68.6762 2.43674L96.1206 2.06078C103.239 1.98551 109.028 7.77518 108.953 14.8932L108.577 42.3375C108.502 46.5481 106.823 50.5582 103.84 53.5407L50.0291 107.352C47.0215 110.359 42.1343 110.359 39.1266 107.352L3.66199 71.887C0.654338 68.8793 0.654338 63.9921 3.66199 60.9845L57.4728 7.17361C60.4555 4.19113 64.4656 2.48686 68.6762 2.43674ZM88.4763 22.5375C91.2832 25.3444 95.8448 25.3444 98.6518 22.5375C101.459 19.7303 101.459 15.1689 98.6518 12.3617C95.845 9.55452 91.2835 9.55452 88.4763 12.3617C85.6691 15.1689 85.6691 19.7303 88.4763 22.5375ZM68.5092 31.4353L66.2981 31.5916L65.7191 23.457C69.2146 25.7228 71.7268 29.9883 72.0925 35.06C72.2517 37.2651 71.9843 39.3803 71.3731 41.292C74.3999 38.8376 78.2347 37.4779 82.3203 37.7354C88.155 38.1029 93.0647 41.6678 95.6463 46.7433L86.274 46.1442L86.4724 42.8952L84.7055 46.0526L78.4613 45.6552L78.6594 42.4062L76.8936 45.5651L71.006 45.196C75.0521 46.0588 78.683 48.3943 81.0075 52.044C84.1335 56.9526 84.1219 63.0251 81.5306 68.1081L76.5073 60.2244L79.2637 58.4525L75.6717 58.9102L72.3149 53.6579L75.0715 51.8861L71.4791 52.3437L69.7574 49.6348C56.6655 58.4733 45.1716 70.3176 36.7787 83.6511L29.7991 76.7306C40.1092 63.9536 52.4654 53.4579 65.3744 45.9908L60.3824 41.9929L61.2294 38.4283L59.1543 41.0074L54.2404 37.068L55.0876 33.5036L53.0122 36.0829L45.6403 30.1741C51.0234 28.1187 57.1187 28.7676 61.7074 32.4447C64.286 34.5112 66.0315 37.2485 66.9154 40.2596L66.8774 39.7258L68.9905 38.2121L66.781 38.37L66.395 32.9479L68.5092 31.4353Z" fill="#538148"/>
</svg>
