<svg xmlns="http://www.w3.org/2000/svg" width="19.347" height="16.197" viewBox="0 0 19.347 16.197"><g transform="translate(0)"><path d="M11.208,17.44a.805.805,0,1,1-.416-1.556,6.614,6.614,0,1,0-8.1-4.676.805.805,0,0,1-1.556.416A8.223,8.223,0,1,1,11.207,17.44Z" transform="translate(2.042 -1.271)" fill="#283ff0"/><path d="M4.32,4.891A.8.8,0,0,1,5.341,3.65L7.873,5.733,9.955,3.2A.8.8,0,1,1,11.2,4.222l-2.55,3.1q-.019.028-.042.055a.806.806,0,0,1-1.135.11l0,0L4.32,4.891Z" transform="translate(-4.027 3.282)" fill="#283ff0"/></g></svg>