<svg width="108" height="106" viewBox="0 0 108 106" fill="none" xmlns="http://www.w3.org/2000/svg">
<path d="M55.5687 80.5167C55.5687 80.5167 84.3657 72.6525 78.9301 45.7059C73.4945 18.7593 66.4399 14.5959 72.685 3.26214C78.9301 -8.07161 44.9289 22.9227 36.0238 45.9372C29.2004 63.6317 35.4455 77.3941 54.5279 80.748" fill="#296639"/>
<path d="M48.282 88.1494C48.282 88.1494 26.8866 95.3198 17.7502 71.9584C8.61382 48.5969 10.9268 42.3518 1.79044 36.4536C-7.34595 30.5555 28.0431 38.8823 44.2342 52.6447C56.7245 63.1689 59.1531 76.7 48.9759 87.9181" fill="#479958"/>
<path d="M44.1186 81.3265C44.1186 91.7351 34.7509 98.3272 23.3015 98.3272C11.8521 98.3272 2.48438 91.7351 2.48438 81.3265C2.48438 70.918 11.8521 65.4824 23.3015 65.4824C34.7509 65.4824 44.1186 70.918 44.1186 81.3265Z" fill="#993829"/>
<path d="M25.1522 67.2169C25.1522 67.2169 22.7236 62.8222 17.1724 63.1692C17.1724 63.1692 20.8732 65.3665 21.2201 68.3734C21.2201 68.3734 17.1724 65.9448 13.2402 68.836C13.2402 68.836 18.7915 69.183 19.7167 69.8769C19.7167 69.8769 15.7845 75.6594 17.7506 78.2037C17.7506 78.2037 19.4854 73.2308 21.914 71.7273C21.914 71.7273 27.0027 73.5777 26.1931 77.0472C26.1931 77.0472 28.9687 74.6186 26.3087 71.0334C26.3087 71.0334 28.7374 69.53 31.513 71.843C31.513 71.843 32.0913 68.2578 26.6557 68.2578C26.6557 68.2578 30.1252 65.4822 33.3634 65.8291C33.2478 65.9448 28.8531 63.1692 25.1522 67.2169Z" fill="#66AA5B"/>
<path d="M88.6441 78.6663C90.8414 81.7888 96.0457 88.0339 103.447 87.2244C103.447 87.2244 96.7396 84.5644 95.5831 80.1697C95.5831 80.1697 104.835 81.7888 107.958 78.7819C107.958 78.7819 96.277 77.9724 95.3518 76.9315C95.3518 76.9315 95.0049 71.9585 99.6309 69.4142C99.6309 69.4142 92.4605 68.6047 90.6101 72.3055C90.6101 72.3055 86.3311 65.7134 91.0727 61.0874C91.0727 61.0874 85.8685 66.2916 85.8685 67.9107C85.8685 67.9107 82.1677 57.3865 85.7528 52.4136C85.7528 52.4136 78.4668 56.4613 82.052 64.9038C82.052 64.9038 87.2563 74.3872 78.5825 76.4689C72.453 77.9723 67.1331 78.8976 68.9835 83.4079C70.8339 87.9183 73.4939 86.2992 75.5756 83.1766C76.8477 81.0949 81.705 79.1288 84.9433 77.9723C86.3311 77.2784 87.9502 77.741 88.6441 78.6663Z" fill="#66AA5B"/>
<path d="M4.10402 103.994C2.02231 97.9798 40.3026 79.5914 60.1945 72.768C80.0864 65.9446 80.2021 72.1898 82.2838 78.2036C84.3655 84.2174 87.6037 87.8026 67.5962 94.5103C47.5886 101.218 6.07008 110.007 4.10402 103.994Z" fill="#DB793E"/>
</svg>
