<svg width="91" height="106" viewBox="0 0 91 106" fill="none" xmlns="http://www.w3.org/2000/svg">
<path d="M67.9515 36.3171C64.7259 31.0754 61.7018 28.8578 57.8713 28.253C49.6056 26.8417 40.1302 33.2931 34.082 32.6883C37.9125 37.1235 44.1622 43.7765 51.42 44.1797C55.8553 44.3813 60.6938 42.1636 67.9515 37.93C68.758 37.3252 68.3548 37.1235 67.9515 36.3171Z" fill="#7ABE90"/>
<path d="M88.1121 1.64111C85.2896 6.68122 75.2094 10.5117 71.5805 17.5678C69.9677 20.7935 69.9677 24.2208 72.1853 29.6641C72.5885 30.4705 72.5885 31.0753 73.3949 30.6721C80.6527 27.4464 84.8864 24.8256 87.3056 21.3983C91.1361 15.5518 89.5233 7.08443 88.1121 1.64111Z" fill="#7ABE90"/>
<path d="M67.9515 36.3171C64.7259 31.0754 61.7018 28.8578 57.8713 28.253C49.6056 26.8417 40.1302 33.2931 34.082 32.6883C37.9125 37.1235 44.1622 43.7765 51.42 44.1797C55.8553 44.3813 60.6938 42.1636 67.9515 37.93C68.758 37.3252 68.3548 37.1235 67.9515 36.3171Z" stroke="#2C3E50" stroke-width="2" stroke-miterlimit="10" stroke-linecap="round" stroke-linejoin="round"/>
<path d="M88.1121 1.64111C85.2896 6.68122 75.2094 10.5117 71.5805 17.5678C69.9677 20.7935 69.9677 24.2208 72.1853 29.6641C72.5885 30.4705 72.5885 31.0753 73.3949 30.6721C80.6527 27.4464 84.8864 24.8256 87.3056 21.3983C91.1361 15.5518 89.5233 7.08443 88.1121 1.64111Z" stroke="#2C3E50" stroke-width="2" stroke-miterlimit="10" stroke-linecap="round" stroke-linejoin="round"/>
<path d="M75.0077 53.4534C76.6205 48.0101 76.6205 41.962 74.6045 36.9219" stroke="#2C3E50" stroke-width="2" stroke-miterlimit="10" stroke-linecap="round" stroke-linejoin="round"/>
<path d="M83.2737 98.4111H6.66406V104.459H83.2737V98.4111Z" fill="#B7B7B7"/>
<path d="M6.66406 98.4111H83.2736" stroke="#2C3E50" stroke-width="2" stroke-miterlimit="10" stroke-linecap="round" stroke-linejoin="round"/>
<path d="M20.7764 104.459H69.1614" stroke="#2C3E50" stroke-width="2" stroke-miterlimit="10" stroke-linecap="round" stroke-linejoin="round"/>
<path d="M21.1796 90.3471H68.7582C80.4513 82.6861 88.3138 69.3803 88.3138 54.0583H1.62402C1.62402 69.3803 9.48659 82.6861 21.1796 90.3471Z" fill="#8C623B"/>
<path d="M85.4909 56.0744C83.2732 67.7674 74.6042 77.646 65.3304 83.8958C64.9272 84.0974 64.524 84.299 63.9192 84.299H17.9535C17.5503 84.299 16.9454 84.0974 16.5422 83.8958C12.9134 81.4765 9.68769 78.4525 6.86523 75.0252C10.0909 81.0733 14.9294 86.1134 20.5743 89.9439C20.9775 90.1455 21.3807 90.3471 21.9855 90.3471H67.9513C68.3545 90.3471 68.9593 90.1455 69.3625 89.9439C80.2492 82.6861 87.5069 70.5899 88.3133 56.4776C88.3133 55.0664 87.3053 54.0583 85.8941 54.0583" fill="#724521"/>
<path d="M21.1796 90.3471H68.7582C80.4513 82.6861 88.3138 69.3803 88.3138 54.0583H1.62402C1.62402 69.3803 9.48659 82.6861 21.1796 90.3471Z" stroke="#2C3E50" stroke-width="2" stroke-miterlimit="10" stroke-linecap="round" stroke-linejoin="round"/>
</svg>
